<svg width="174" height="57" viewBox="0 0 174 57" fill="none" xmlns="http://www.w3.org/2000/svg">
<rect width="173.2" height="56.65" rx="17.5" fill="#080809"/>
<path d="M37.739 39.7712C33.6146 39.7485 30.203 31.6931 30.203 27.5907C30.203 20.8894 35.4572 19.4223 37.4821 19.4223C38.3947 19.4223 39.3691 19.7652 40.2286 20.0686C40.8296 20.2803 41.4511 20.4988 41.7968 20.4988C42.0037 20.4988 42.4914 20.3129 42.9219 20.1498C43.84 19.8001 44.9825 19.3655 46.3129 19.3655C46.3152 19.3655 46.3184 19.3655 46.3208 19.3655C47.3142 19.3655 50.3262 19.5741 52.1371 22.176L52.5613 22.7859L51.9508 23.2266C51.0787 23.8562 49.4874 25.0047 49.4874 27.2797C49.4874 29.9742 51.2895 31.0104 52.1553 31.5088C52.5375 31.7288 52.9331 31.9556 52.9331 32.4517C52.9331 32.7756 50.2311 39.731 46.3073 39.731C45.3472 39.731 44.6685 39.4549 44.0699 39.2114C43.4641 38.9649 42.9416 38.7525 42.0782 38.7525C41.6406 38.7525 41.0871 38.9505 40.5012 39.1606C39.7006 39.4465 38.7943 39.7712 37.766 39.7712H37.739Z" fill="white"/>
<path d="M46.7286 13.2571C46.8308 16.7824 44.1957 19.2282 41.5637 19.0748C41.13 16.2614 44.1953 13.2571 46.7286 13.2571Z" fill="white"/>
<path d="M67.6 21.543H69.4186L66.9453 14.583H64.8253L62.352 21.543H64.1706L64.5343 20.4492H67.2363L67.6 21.543ZM65.0332 18.9578L65.8853 16.4025L66.7374 18.9578H65.0332Z" fill="white"/>
<path d="M73.099 16.5715L72.0182 19.7234L70.9374 16.5715H69.2124L71.1349 21.543H72.9015L74.824 16.5715H73.099Z" fill="white"/>
<path d="M78.9653 16.5715V17.0388C78.6224 16.661 78.1132 16.4323 77.4169 16.4323C76.0556 16.4323 74.9332 17.5758 74.9332 19.0572C74.9332 20.5387 76.0556 21.6822 77.4169 21.6822C78.1132 21.6822 78.6224 21.4535 78.9653 21.0756V21.543H80.5241V16.5715H78.9653ZM77.7287 20.2703C77.0116 20.2703 76.492 19.803 76.492 19.0572C76.492 18.3115 77.0116 17.8442 77.7287 17.8442C78.4457 17.8442 78.9653 18.3115 78.9653 19.0572C78.9653 19.803 78.4457 20.2703 77.7287 20.2703Z" fill="white"/>
<path d="M81.6677 21.543H83.2265V14.2847H81.6677V21.543Z" fill="white"/>
<path d="M85.1466 16.134C85.6558 16.134 86.0819 15.7264 86.0819 15.2392C86.0819 14.752 85.6558 14.3443 85.1466 14.3443C84.6374 14.3443 84.2113 14.752 84.2113 15.2392C84.2113 15.7264 84.6374 16.134 85.1466 16.134ZM84.3672 21.543H85.926V16.5715H84.3672V21.543Z" fill="white"/>
<path d="M90.1739 16.4323C89.4777 16.4323 88.9685 16.661 88.6255 17.0388V14.583H87.0667V21.543H88.6255V21.0756C88.9685 21.4535 89.4777 21.6822 90.1739 21.6822C91.5353 21.6822 92.6576 20.5387 92.6576 19.0572C92.6576 17.5758 91.5353 16.4323 90.1739 16.4323ZM89.8622 20.2703C89.1451 20.2703 88.6255 19.803 88.6255 19.0572C88.6255 18.3115 89.1451 17.8442 89.8622 17.8442C90.5792 17.8442 91.0988 18.3115 91.0988 19.0572C91.0988 19.803 90.5792 20.2703 89.8622 20.2703Z" fill="white"/>
<path d="M93.5414 21.543H95.1002V14.2847H93.5414V21.543Z" fill="white"/>
<path d="M97.6334 19.6538H101.323C101.364 19.4649 101.385 19.266 101.385 19.0572C101.385 17.5559 100.263 16.4323 98.7454 16.4323C97.1034 16.4323 95.9811 17.5758 95.9811 19.0572C95.9811 20.5387 97.0827 21.6822 98.8597 21.6822C99.8469 21.6822 100.616 21.3342 101.125 20.658L99.8781 19.972C99.6703 20.1907 99.3065 20.3498 98.8805 20.3498C98.3089 20.3498 97.8309 20.1708 97.6334 19.6538ZM97.6023 18.5402C97.7477 18.0331 98.1426 17.7547 98.735 17.7547C99.2026 17.7547 99.6703 17.9635 99.8365 18.5402H97.6023Z" fill="white"/>
<path d="M107.361 21.6822C108.889 21.6822 110.115 20.5387 110.115 19.0572C110.115 17.5758 108.889 16.4323 107.361 16.4323C105.834 16.4323 104.607 17.5758 104.607 19.0572C104.607 20.5387 105.834 21.6822 107.361 21.6822ZM107.361 20.2305C106.686 20.2305 106.166 19.7632 106.166 19.0572C106.166 18.3513 106.686 17.884 107.361 17.884C108.037 17.884 108.556 18.3513 108.556 19.0572C108.556 19.7632 108.037 20.2305 107.361 20.2305Z" fill="white"/>
<path d="M114.042 16.4323C113.356 16.4323 112.836 16.671 112.556 17.0388V16.5715H110.997V21.543H112.556V18.8286C112.556 18.1226 112.95 17.8044 113.522 17.8044C114.021 17.8044 114.426 18.0928 114.426 18.7092V21.543H115.985V18.4905C115.985 17.1482 115.091 16.4323 114.042 16.4323Z" fill="white"/>
<path d="M122.698 18.0033V16.5715H121.628V15.1795L120.069 15.627V16.5715H119.238V18.0033H120.069V19.7632C120.069 21.1552 120.661 21.7418 122.698 21.543V20.1907C122.012 20.2305 121.628 20.1907 121.628 19.7632V18.0033H122.698Z" fill="white"/>
<path d="M126.626 16.4323C125.94 16.4323 125.42 16.671 125.14 17.0388V14.583H123.581V21.543H125.14V18.8286C125.14 18.1226 125.534 17.8044 126.106 17.8044C126.605 17.8044 127.01 18.0928 127.01 18.7092V21.543H128.569V18.4905C128.569 17.1482 127.675 16.4323 126.626 16.4323Z" fill="white"/>
<path d="M131.032 19.6538H134.721C134.763 19.4649 134.783 19.266 134.783 19.0572C134.783 17.5559 133.661 16.4323 132.144 16.4323C130.502 16.4323 129.38 17.5758 129.38 19.0572C129.38 20.5387 130.481 21.6822 132.258 21.6822C133.245 21.6822 134.014 21.3342 134.524 20.658L133.277 19.972C133.069 20.1907 132.705 20.3498 132.279 20.3498C131.707 20.3498 131.229 20.1708 131.032 19.6538ZM131.001 18.5402C131.146 18.0331 131.541 17.7547 132.133 17.7547C132.601 17.7547 133.069 17.9635 133.235 18.5402H131.001Z" fill="white"/>
<path d="M71.0986 39.7715H74.1296L70.0075 28.1715H66.4742L62.352 39.7715H65.383L65.9892 37.9487H70.4924L71.0986 39.7715ZM66.8206 35.463L68.2408 31.2041L69.6611 35.463H66.8206Z" fill="white"/>
<path d="M80.2555 31.2538C79.095 31.2538 78.2464 31.635 77.6748 32.2647V31.4858H75.0768V43.0858H77.6748V38.9927C78.2464 39.6224 79.095 40.0035 80.2555 40.0035C82.5244 40.0035 84.395 38.0978 84.395 35.6287C84.395 33.1595 82.5244 31.2538 80.2555 31.2538ZM79.7359 37.6504C78.5408 37.6504 77.6748 36.8715 77.6748 35.6287C77.6748 34.3858 78.5408 33.607 79.7359 33.607C80.931 33.607 81.797 34.3858 81.797 35.6287C81.797 36.8715 80.931 37.6504 79.7359 37.6504Z" fill="white"/>
<path d="M91.0467 31.2538C89.8862 31.2538 89.0375 31.635 88.466 32.2647V31.4858H85.868V43.0858H88.466V38.9927C89.0375 39.6224 89.8862 40.0035 91.0467 40.0035C93.3156 40.0035 95.1861 38.0978 95.1861 35.6287C95.1861 33.1595 93.3156 31.2538 91.0467 31.2538ZM90.5271 37.6504C89.332 37.6504 88.466 36.8715 88.466 35.6287C88.466 34.3858 89.332 33.607 90.5271 33.607C91.7221 33.607 92.5881 34.3858 92.5881 35.6287C92.5881 36.8715 91.7221 37.6504 90.5271 37.6504Z" fill="white"/>
<path d="M96.6591 39.7715H99.2571V27.6744H96.6591V39.7715Z" fill="white"/>
<path d="M103.479 36.623H109.628C109.697 36.3081 109.732 35.9767 109.732 35.6287C109.732 33.1264 107.861 31.2538 105.332 31.2538C102.596 31.2538 100.725 33.1595 100.725 35.6287C100.725 38.0978 102.561 40.0035 105.523 40.0035C107.168 40.0035 108.45 39.4235 109.299 38.2967L107.22 37.1532C106.874 37.5178 106.268 37.783 105.558 37.783C104.605 37.783 103.808 37.4847 103.479 36.623ZM103.427 34.767C103.67 33.9218 104.328 33.4578 105.315 33.4578C106.094 33.4578 106.874 33.8058 107.151 34.767H103.427Z" fill="white"/>
<path d="M119.865 40.0035C122.498 40.0035 124.368 38.6778 124.368 36.4407C124.368 33.9881 122.307 33.375 120.471 32.8447C118.584 32.2978 118.289 31.9332 118.289 31.403C118.289 30.939 118.722 30.5247 119.588 30.5247C120.697 30.5247 121.268 31.0384 121.684 31.867L124.022 30.5578C123.139 28.851 121.58 27.9395 119.588 27.9395C117.492 27.9395 115.518 29.2321 115.518 31.4692C115.518 33.6898 117.285 34.5184 119.086 34.999C120.904 35.4795 121.597 35.7612 121.597 36.4738C121.597 36.9212 121.268 37.4184 119.952 37.4184C118.584 37.4184 117.839 36.7721 117.406 35.811L115.016 37.1367C115.691 38.8435 117.319 40.0035 119.865 40.0035Z" fill="white"/>
<path d="M130.488 33.8721V31.4858H128.704V29.1658L126.106 29.9115V31.4858H124.72V33.8721H126.106V36.8052C126.106 39.1252 127.093 40.103 130.488 39.7715V37.5178C129.345 37.5841 128.704 37.5178 128.704 36.8052V33.8721H130.488Z" fill="white"/>
<path d="M135.946 40.0035C138.493 40.0035 140.536 38.0978 140.536 35.6287C140.536 33.1595 138.493 31.2538 135.946 31.2538C133.4 31.2538 131.357 33.1595 131.357 35.6287C131.357 38.0978 133.4 40.0035 135.946 40.0035ZM135.946 37.5841C134.821 37.5841 133.955 36.8052 133.955 35.6287C133.955 34.4521 134.821 33.6732 135.946 33.6732C137.072 33.6732 137.938 34.4521 137.938 35.6287C137.938 36.8052 137.072 37.5841 135.946 37.5841Z" fill="white"/>
<path d="M144.604 32.9607V31.4858H142.006V39.7715H144.604V36.0264C144.604 34.3858 146.128 33.9715 147.202 34.1372V31.3201C146.111 31.3201 144.95 31.8504 144.604 32.9607Z" fill="white"/>
<path d="M150.483 36.623H156.632C156.701 36.3081 156.736 35.9767 156.736 35.6287C156.736 33.1264 154.865 31.2538 152.337 31.2538C149.6 31.2538 147.729 33.1595 147.729 35.6287C147.729 38.0978 149.565 40.0035 152.527 40.0035C154.173 40.0035 155.454 39.4235 156.303 38.2967L154.224 37.1532C153.878 37.5178 153.272 37.783 152.562 37.783C151.609 37.783 150.812 37.4847 150.483 36.623ZM150.431 34.767C150.674 33.9218 151.332 33.4578 152.319 33.4578C153.099 33.4578 153.878 33.8058 154.155 34.767H150.431Z" fill="white"/>
</svg>
