<svg width="357" height="833" viewBox="0 0 357 833" fill="none" xmlns="http://www.w3.org/2000/svg">
<path d="M356.654 399.989C356.888 399.236 357.707 398.756 358.51 398.939C359.303 399.12 359.756 399.892 359.521 400.644C359.287 401.397 358.442 401.883 357.65 401.702C356.846 401.518 356.419 400.741 356.654 399.989Z" fill="#F65E21"/>
<path d="M354.165 417.05C354.396 416.308 355.217 415.863 355.988 416.039C356.736 416.21 357.188 416.947 356.957 417.688C356.725 418.429 355.904 418.874 355.156 418.703C354.386 418.527 353.934 417.791 354.165 417.05Z" fill="#F65E21"/>
<path d="M354.688 434.376C354.896 433.711 355.63 433.314 356.322 433.473C356.981 433.623 357.386 434.28 357.178 434.946C356.974 435.601 356.24 435.997 355.581 435.846C354.889 435.688 354.483 435.032 354.688 434.376Z" fill="#F65E21"/>
<path d="M354.57 353.344C354.771 352.699 355.518 352.26 356.243 352.426C356.947 352.587 357.338 353.286 357.137 353.931C356.919 354.63 356.179 355.048 355.476 354.887C354.75 354.721 354.352 354.043 354.57 353.344Z" fill="#F65E21"/>
<path d="M345.467 368.386C345.705 367.623 346.54 367.17 347.344 367.353C348.126 367.532 348.586 368.282 348.348 369.044C348.103 369.829 347.267 370.282 346.486 370.104C345.682 369.92 345.222 369.17 345.467 368.386Z" fill="#F65E21"/>
<path d="M338.578 384.374C338.849 383.503 339.792 382.97 340.695 383.177C341.622 383.389 342.129 384.253 341.858 385.124C341.587 385.995 340.637 386.549 339.711 386.337C338.807 386.13 338.306 385.244 338.578 384.374Z" fill="#F65E21"/>
<path d="M334.457 401.155C334.698 400.381 335.527 399.903 336.308 400.081C337.123 400.268 337.564 401.037 337.323 401.811C337.082 402.585 336.259 403.042 335.445 402.855C334.664 402.677 334.216 401.929 334.457 401.155Z" fill="#F65E21"/>
<path d="M332.643 418.318C332.868 417.598 333.671 417.172 334.386 417.335C335.135 417.506 335.571 418.216 335.346 418.935C335.125 419.644 334.333 420.073 333.584 419.902C332.869 419.738 332.422 419.026 332.643 418.318Z" fill="#F65E21"/>
<path d="M333.279 435.607C333.49 434.93 334.23 434.512 334.955 434.678C335.658 434.839 336.056 435.517 335.845 436.194C335.628 436.893 334.888 437.311 334.185 437.15C333.459 436.984 333.061 436.306 333.279 435.607Z" fill="#F65E21"/>
<path d="M336.249 452.754C336.473 452.033 337.267 451.593 337.992 451.758C338.728 451.927 339.127 452.64 338.903 453.361C338.686 454.06 337.926 454.508 337.19 454.34C336.465 454.174 336.032 453.453 336.249 452.754Z" fill="#F65E21"/>
<path d="M341.836 469.485C342.031 468.862 342.727 468.469 343.386 468.619C344.033 468.767 344.397 469.403 344.203 470.026C344.002 470.671 343.326 471.034 342.679 470.886C342.02 470.736 341.635 470.13 341.836 469.485Z" fill="#F65E21"/>
<path d="M349.804 485.557C349.968 485.03 350.547 484.701 351.082 484.824C351.617 484.946 351.919 485.476 351.755 486.003C351.594 486.52 351.026 486.851 350.491 486.728C349.956 486.606 349.644 486.074 349.804 485.557Z" fill="#F65E21"/>
<path d="M351.129 325.284C351.266 324.843 351.695 324.619 352.13 324.718C352.543 324.812 352.806 325.195 352.669 325.636C352.545 326.034 352.08 326.297 351.667 326.203C351.232 326.103 351.005 325.682 351.129 325.284Z" fill="#F65E21"/>
<path d="M339.536 338.844C339.687 338.361 340.235 338.06 340.738 338.175C341.251 338.292 341.54 338.784 341.389 339.268C341.242 339.741 340.698 340.066 340.184 339.949C339.682 339.834 339.388 339.318 339.536 338.844Z" fill="#F65E21"/>
<path d="M329.774 353.547C329.954 352.965 330.572 352.588 331.174 352.726C331.753 352.859 332.093 353.455 331.913 354.036C331.74 354.596 331.102 354.957 330.523 354.825C329.921 354.687 329.6 354.106 329.774 353.547Z" fill="#F65E21"/>
<path d="M321.951 369.14C322.145 368.516 322.849 368.136 323.508 368.287C324.133 368.43 324.523 369.06 324.328 369.683C324.131 370.317 323.423 370.708 322.798 370.565C322.139 370.414 321.753 369.774 321.951 369.14Z" fill="#F65E21"/>
<path d="M316.282 385.518C316.476 384.895 317.172 384.501 317.842 384.654C318.478 384.8 318.842 385.436 318.648 386.059C318.45 386.693 317.768 387.079 317.132 386.933C316.463 386.78 316.084 386.153 316.282 385.518Z" fill="#F65E21"/>
<path d="M312.656 402.397C312.864 401.731 313.594 401.345 314.252 401.496C314.944 401.654 315.319 402.292 315.111 402.959C314.91 403.604 314.207 404.019 313.515 403.86C312.857 403.71 312.455 403.042 312.656 402.397Z" fill="#F65E21"/>
<path d="M311.187 419.585C311.401 418.897 312.144 418.467 312.868 418.633C313.571 418.794 313.966 419.483 313.752 420.172C313.541 420.849 312.795 421.289 312.093 421.129C311.368 420.963 310.977 420.263 311.187 419.585Z" fill="#F65E21"/>
<path d="M311.754 436.823C311.988 436.07 312.821 435.581 313.635 435.767C314.415 435.946 314.853 436.726 314.619 437.479C314.379 438.253 313.549 438.731 312.769 438.553C311.955 438.367 311.513 437.597 311.754 436.823Z" fill="#F65E21"/>
<path d="M314.78 454.03C314.997 453.331 315.737 452.912 316.462 453.078C317.164 453.239 317.563 453.917 317.345 454.616C317.131 455.305 316.392 455.723 315.689 455.562C314.964 455.396 314.566 454.718 314.78 454.03Z" fill="#F65E21"/>
<path d="M319.872 470.873C320.066 470.25 320.765 469.845 321.412 469.993C322.07 470.144 322.431 470.79 322.237 471.414C322.039 472.049 321.358 472.434 320.7 472.284C320.053 472.136 319.675 471.508 319.872 470.873Z" fill="#F65E21"/>
<path d="M327.018 487.181C327.205 486.578 327.831 486.214 328.433 486.352C329.034 486.489 329.355 487.07 329.169 487.673C328.998 488.222 328.38 488.599 327.778 488.461C327.177 488.323 326.848 487.729 327.018 487.181Z" fill="#F65E21"/>
<path d="M336.172 502.716C336.329 502.21 336.874 501.92 337.377 502.035C337.902 502.155 338.183 502.634 338.025 503.139C337.878 503.612 337.348 503.929 336.823 503.809C336.321 503.694 336.024 503.189 336.172 502.716Z" fill="#F65E21"/>
<path d="M347.182 517.289C347.313 516.87 347.759 516.626 348.183 516.723C348.596 516.818 348.852 517.222 348.722 517.642C348.598 518.04 348.134 518.302 347.721 518.208C347.297 518.111 347.058 517.688 347.182 517.289Z" fill="#F65E21"/>
<path d="M349.503 298.734C349.591 298.455 349.923 298.243 350.261 298.32C350.576 298.392 350.74 298.717 350.653 298.996C350.562 299.286 350.24 299.465 349.924 299.393C349.586 299.316 349.412 299.023 349.503 298.734Z" fill="#F65E21"/>
<path d="M336.333 311.005C336.427 310.704 336.758 310.492 337.061 310.561C337.376 310.633 337.551 310.961 337.457 311.262C337.367 311.552 337.038 311.719 336.723 311.647C336.42 311.578 336.243 311.295 336.333 311.005Z" fill="#F65E21"/>
<path d="M324.523 324.376C324.637 324.011 325.034 323.813 325.38 323.893C325.749 323.977 325.967 324.314 325.853 324.68C325.735 325.056 325.356 325.234 324.987 325.15C324.641 325.07 324.405 324.752 324.523 324.376Z" fill="#F65E21"/>
<path d="M314.264 338.787C314.394 338.368 314.855 338.116 315.268 338.21C315.703 338.31 315.934 338.72 315.803 339.139C315.679 339.537 315.241 339.794 314.806 339.695C314.393 339.6 314.14 339.185 314.264 338.787Z" fill="#F65E21"/>
<path d="M305.641 354.061C305.798 353.556 306.355 353.269 306.869 353.386C307.36 353.498 307.675 353.985 307.517 354.49C307.363 354.985 306.803 355.283 306.311 355.17C305.798 355.053 305.486 354.556 305.641 354.061Z" fill="#F65E21"/>
<path d="M298.859 370.085C299.037 369.516 299.632 369.18 300.189 369.307C300.77 369.44 301.101 369.988 300.924 370.557C300.759 371.084 300.15 371.428 299.57 371.296C299.012 371.168 298.695 370.612 298.859 370.085Z" fill="#F65E21"/>
<path d="M293.9 386.652C294.091 386.039 294.732 385.667 295.379 385.815C295.993 385.956 296.345 386.554 296.154 387.167C295.97 387.758 295.317 388.127 294.703 387.987C294.056 387.839 293.716 387.243 293.9 386.652Z" fill="#F65E21"/>
<path d="M290.966 403.65C291.14 403.091 291.756 402.726 292.358 402.863C292.961 403.001 293.293 403.584 293.119 404.143C292.939 404.723 292.315 405.076 291.712 404.938C291.11 404.8 290.785 404.231 290.966 403.65Z" fill="#F65E21"/>
<path d="M289.729 420.851C289.933 420.195 290.647 419.783 291.339 419.941C292.009 420.094 292.399 420.759 292.195 421.415C291.987 422.081 291.269 422.469 290.599 422.316C289.907 422.158 289.521 421.517 289.729 420.851Z" fill="#F65E21"/>
<path d="M290.524 438.13C290.742 437.431 291.493 437.015 292.207 437.179C292.91 437.339 293.319 438.02 293.102 438.719C292.888 439.407 292.137 439.822 291.433 439.662C290.719 439.498 290.31 438.818 290.524 438.13Z" fill="#F65E21"/>
<path d="M293.291 455.299C293.505 454.611 294.245 454.193 294.948 454.353C295.673 454.519 296.072 455.198 295.857 455.885C295.643 456.573 294.903 456.992 294.178 456.826C293.475 456.665 293.077 455.987 293.291 455.299Z" fill="#F65E21"/>
<path d="M298.088 472.234C298.279 471.62 298.931 471.251 299.544 471.391C300.191 471.539 300.531 472.136 300.34 472.749C300.156 473.34 299.509 473.734 298.862 473.586C298.249 473.446 297.905 472.825 298.088 472.234Z" fill="#F65E21"/>
<path d="M304.681 488.685C304.848 488.147 305.442 487.811 305.999 487.939C306.568 488.069 306.888 488.614 306.721 489.152C306.547 489.711 305.949 490.059 305.381 489.929C304.824 489.801 304.507 489.245 304.681 488.685Z" fill="#F65E21"/>
<path d="M313.028 504.555C313.185 504.05 313.719 503.757 314.232 503.874C314.734 503.989 315.026 504.471 314.869 504.976C314.721 505.45 314.181 505.764 313.679 505.649C313.166 505.532 312.88 505.029 313.028 504.555Z" fill="#F65E21"/>
<path d="M323.069 519.628C323.206 519.187 323.685 518.916 324.154 519.023C324.589 519.123 324.858 519.565 324.72 520.006C324.586 520.436 324.093 520.715 323.658 520.615C323.189 520.508 322.935 520.058 323.069 519.628Z" fill="#F65E21"/>
<path d="M334.615 533.773C334.756 533.322 335.235 533.051 335.682 533.153C336.14 533.258 336.398 533.697 336.257 534.148C336.129 534.557 335.65 534.828 335.192 534.723C334.746 534.621 334.488 534.182 334.615 533.773Z" fill="#F65E21"/>
<path d="M347.644 546.821C347.774 546.402 348.254 546.131 348.711 546.236C349.147 546.336 349.416 546.777 349.285 547.197C349.147 547.637 348.657 547.906 348.221 547.806C347.764 547.701 347.506 547.262 347.644 546.821Z" fill="#F65E21"/>
<path d="M348.863 273.403C349.007 272.94 349.447 272.718 349.871 272.815C350.295 272.912 350.547 273.293 350.403 273.755C350.279 274.153 349.832 274.397 349.408 274.3C348.984 274.203 348.739 273.801 348.863 273.403Z" fill="#F65E21"/>
<path d="M334.257 284.39C334.405 283.917 334.971 283.597 335.462 283.709C335.987 283.829 336.258 284.34 336.111 284.814C335.95 285.33 335.434 285.603 334.909 285.483C334.418 285.371 334.096 284.906 334.257 284.39Z" fill="#F65E21"/>
<path d="M321.009 296.592C321.16 296.108 321.686 295.802 322.21 295.922C322.735 296.042 323.001 296.529 322.851 297.013C322.7 297.497 322.182 297.817 321.657 297.697C321.133 297.577 320.859 297.076 321.009 296.592Z" fill="#F65E21"/>
<path d="M309.029 309.827C309.187 309.322 309.741 308.999 310.277 309.122C310.801 309.242 311.117 309.763 310.96 310.268C310.799 310.784 310.222 311.101 309.698 310.981C309.162 310.859 308.869 310.343 309.029 309.827Z" fill="#F65E21"/>
<path d="M298.471 324.028C298.631 323.512 299.181 323.165 299.727 323.29C300.262 323.412 300.571 323.955 300.41 324.472C300.243 325.01 299.674 325.306 299.139 325.183C298.593 325.058 298.304 324.566 298.471 324.028Z" fill="#F65E21"/>
<path d="M289.429 339.07C289.59 338.554 290.156 338.234 290.647 338.347C291.172 338.466 291.465 338.983 291.304 339.499C291.157 339.971 290.612 340.261 290.087 340.141C289.596 340.029 289.281 339.543 289.429 339.07Z" fill="#F65E21"/>
<path d="M281.862 354.772C282.033 354.224 282.631 353.877 283.188 354.004C283.757 354.134 284.074 354.691 283.903 355.239C283.739 355.766 283.142 356.113 282.573 355.983C282.015 355.856 281.698 355.299 281.862 354.772Z" fill="#F65E21"/>
<path d="M275.916 371.06C276.097 370.48 276.732 370.13 277.323 370.265C277.915 370.4 278.25 370.972 278.07 371.552C277.896 372.111 277.268 372.475 276.677 372.339C276.086 372.204 275.742 371.619 275.916 371.06Z" fill="#F65E21"/>
<path d="M271.706 387.8C271.873 387.263 272.53 386.883 273.11 387.016C273.724 387.156 274.05 387.76 273.883 388.298C273.702 388.878 273.074 389.241 272.46 389.101C271.88 388.968 271.525 388.38 271.706 387.8Z" fill="#F65E21"/>
<path d="M269.193 404.877C269.375 404.297 270.021 403.95 270.602 404.083C271.217 404.223 271.553 404.795 271.371 405.375C271.19 405.955 270.569 406.296 269.955 406.156C269.374 406.023 269.012 405.457 269.193 404.877Z" fill="#F65E21"/>
<path d="M268.414 422.123C268.591 421.553 269.23 421.193 269.821 421.328C270.412 421.463 270.745 422.046 270.567 422.616C270.387 423.196 269.766 423.538 269.175 423.403C268.583 423.267 268.233 422.704 268.414 422.123Z" fill="#F65E21"/>
<path d="M269.115 439.361C269.332 438.662 270.09 438.225 270.837 438.396C271.584 438.567 271.987 439.269 271.77 439.968C271.542 440.699 270.785 441.137 270.038 440.966C269.29 440.795 268.888 440.092 269.115 439.361Z" fill="#F65E21"/>
<path d="M271.86 456.579C272.068 455.914 272.799 455.528 273.457 455.679C274.15 455.837 274.558 456.483 274.35 457.149C274.149 457.793 273.409 458.211 272.716 458.053C272.057 457.902 271.659 457.224 271.86 456.579Z" fill="#F65E21"/>
<path d="M276.13 473.499C276.354 472.779 277.132 472.359 277.858 472.525C278.606 472.696 279.034 473.392 278.81 474.112C278.585 474.831 277.808 475.252 277.06 475.081C276.334 474.915 275.905 474.219 276.13 473.499Z" fill="#F65E21"/>
<path d="M282.311 490.105C282.509 489.471 283.213 489.091 283.849 489.237C284.497 489.385 284.886 490.015 284.689 490.649C284.494 491.272 283.786 491.663 283.139 491.515C282.503 491.37 282.117 490.729 282.311 490.105Z" fill="#F65E21"/>
<path d="M289.996 506.182C290.187 505.57 290.86 505.217 291.474 505.358C292.1 505.501 292.466 506.091 292.275 506.703C292.09 507.293 291.425 507.659 290.8 507.516C290.185 507.376 289.811 506.772 289.996 506.182Z" fill="#F65E21"/>
<path d="M299.475 521.656C299.619 521.194 300.112 520.915 300.592 521.024C301.072 521.134 301.371 521.594 301.227 522.057C301.083 522.519 300.546 522.823 300.066 522.713C299.586 522.604 299.331 522.119 299.475 521.656Z" fill="#F65E21"/>
<path d="M310.136 536.317C310.281 535.855 310.786 535.579 311.267 535.689C311.759 535.802 312.047 536.259 311.902 536.721C311.761 537.172 311.238 537.467 310.746 537.354C310.265 537.244 309.995 536.768 310.136 536.317Z" fill="#F65E21"/>
<path d="M322.169 550.084C322.32 549.6 322.86 549.285 323.361 549.4C323.874 549.518 324.16 550.021 324.009 550.505C323.852 551.011 323.319 551.304 322.806 551.187C322.304 551.072 322.012 550.59 322.169 550.084Z" fill="#F65E21"/>
<path d="M335.577 562.886C335.721 562.424 336.226 562.147 336.717 562.259C337.185 562.367 337.473 562.824 337.329 563.287C337.185 563.749 336.659 564.056 336.191 563.948C335.7 563.836 335.433 563.349 335.577 562.886Z" fill="#F65E21"/>
<path d="M350.247 574.597C350.37 574.199 350.834 573.936 351.247 574.031C351.67 574.127 351.909 574.551 351.785 574.949C351.651 575.38 351.205 575.624 350.782 575.527C350.369 575.432 350.113 575.028 350.247 574.597Z" fill="#F65E21"/>
<path d="M349.338 249.07C349.469 248.65 349.904 248.404 350.339 248.504C350.752 248.598 351.008 249.002 350.878 249.422C350.75 249.831 350.289 250.083 349.877 249.988C349.442 249.889 349.211 249.479 349.338 249.07Z" fill="#F65E21"/>
<path d="M333.567 258.983C333.755 258.382 334.405 258.024 335.019 258.165C335.667 258.313 336.011 258.898 335.823 259.499C335.635 260.101 334.996 260.461 334.349 260.313C333.734 260.172 333.379 259.585 333.567 258.983Z" fill="#F65E21"/>
<path d="M318.853 270.033C319.094 269.26 319.917 268.769 320.731 268.955C321.513 269.134 321.985 269.921 321.744 270.694C321.512 271.436 320.648 271.906 319.867 271.727C319.052 271.541 318.621 270.775 318.853 270.033Z" fill="#F65E21"/>
<path d="M305.376 282.154C305.641 281.305 306.584 280.772 307.466 280.974C308.349 281.176 308.845 282.037 308.581 282.886C308.322 283.713 307.393 284.237 306.511 284.036C305.629 283.834 305.118 282.981 305.376 282.154Z" fill="#F65E21"/>
<path d="M293.394 295.299C293.639 294.516 294.483 294.076 295.276 294.257C296.058 294.436 296.533 295.177 296.288 295.961C296.05 296.723 295.202 297.174 294.42 296.995C293.627 296.813 293.155 296.062 293.394 295.299Z" fill="#F65E21"/>
<path d="M282.795 309.342C282.99 308.719 283.676 308.323 284.324 308.472C284.984 308.622 285.359 309.26 285.164 309.883C284.966 310.516 284.282 310.866 283.623 310.716C282.975 310.568 282.597 309.975 282.795 309.342Z" fill="#F65E21"/>
<path d="M273.341 324.144C273.532 323.532 274.16 323.203 274.74 323.336C275.343 323.474 275.685 324.024 275.494 324.637C275.324 325.185 274.696 325.548 274.094 325.411C273.514 325.278 273.17 324.693 273.341 324.144Z" fill="#F65E21"/>
<path d="M265.1 339.55C265.295 338.926 265.985 338.555 266.632 338.703C267.302 338.856 267.661 339.467 267.467 340.091C267.269 340.725 266.595 341.123 265.925 340.97C265.278 340.822 264.902 340.184 265.1 339.55Z" fill="#F65E21"/>
<path d="M258.412 355.583C258.6 354.981 259.288 354.574 259.935 354.722C260.594 354.873 260.976 355.524 260.789 356.126C260.591 356.761 259.881 357.162 259.222 357.012C258.575 356.864 258.215 356.217 258.412 355.583Z" fill="#F65E21"/>
<path d="M253.202 372.121C253.399 371.486 254.084 371.09 254.732 371.238C255.39 371.389 255.765 372.027 255.567 372.662C255.373 373.285 254.68 373.668 254.022 373.517C253.375 373.369 253.008 372.744 253.202 372.121Z" fill="#F65E21"/>
<path d="M249.602 389.001C249.789 388.399 250.431 388.027 251.044 388.168C251.669 388.311 252.031 388.912 251.844 389.514C251.66 390.106 250.993 390.483 250.368 390.34C249.755 390.2 249.418 389.593 249.602 389.001Z" fill="#F65E21"/>
<path d="M247.56 406.132C247.724 405.605 248.322 405.258 248.913 405.393C249.482 405.523 249.788 406.077 249.624 406.604C249.446 407.173 248.863 407.512 248.294 407.382C247.702 407.247 247.382 406.701 247.56 406.132Z" fill="#F65E21"/>
<path d="M247.068 423.41C247.232 422.884 247.802 422.588 248.338 422.711C248.874 422.833 249.186 423.33 249.021 423.857C248.86 424.373 248.291 424.703 247.755 424.58C247.219 424.458 246.907 423.926 247.068 423.41Z" fill="#F65E21"/>
<path d="M247.926 440.676C248.118 440.064 248.794 439.701 249.408 439.842C250.023 439.982 250.397 440.585 250.206 441.197C250.021 441.788 249.348 442.14 248.734 442C248.119 441.859 247.742 441.267 247.926 440.676Z" fill="#F65E21"/>
<path d="M250.525 457.858C250.709 457.266 251.376 456.889 252 457.032C252.613 457.172 252.95 457.779 252.766 458.371C252.572 458.994 251.935 459.355 251.322 459.215C250.697 459.072 250.332 458.482 250.525 457.858Z" fill="#F65E21"/>
<path d="M254.503 474.835C254.717 474.147 255.46 473.718 256.152 473.876C256.866 474.04 257.272 474.731 257.058 475.419C256.85 476.086 256.1 476.501 255.385 476.338C254.694 476.18 254.295 475.501 254.503 474.835Z" fill="#F65E21"/>
<path d="M260.209 491.493C260.406 490.859 261.124 490.436 261.816 490.594C262.486 490.747 262.873 491.423 262.676 492.057C262.468 492.723 261.749 493.112 261.079 492.958C260.387 492.8 260.001 492.159 260.209 491.493Z" fill="#F65E21"/>
<path d="M267.381 507.753C267.576 507.13 268.273 506.737 268.932 506.888C269.579 507.036 269.943 507.671 269.749 508.294C269.551 508.928 268.875 509.291 268.227 509.143C267.568 508.993 267.183 508.387 267.381 507.753Z" fill="#F65E21"/>
<path d="M276.007 523.439C276.191 522.848 276.864 522.496 277.479 522.637C278.105 522.779 278.471 523.369 278.286 523.96C278.092 524.583 277.43 524.938 276.804 524.795C276.189 524.654 275.812 524.062 276.007 523.439Z" fill="#F65E21"/>
<path d="M285.916 538.526C286.117 537.881 286.779 537.48 287.449 537.633C288.084 537.778 288.47 538.419 288.27 539.064C288.082 539.667 287.375 540.058 286.74 539.912C286.07 539.759 285.729 539.128 285.916 538.526Z" fill="#F65E21"/>
<path d="M297.434 552.877C297.588 552.382 298.11 552.086 298.634 552.206C299.136 552.321 299.428 552.803 299.274 553.298C299.116 553.804 298.58 554.108 298.078 553.993C297.554 553.873 297.276 553.383 297.434 552.877Z" fill="#F65E21"/>
<path d="M309.819 566.339C309.987 565.801 310.582 565.466 311.162 565.598C311.72 565.726 312.041 566.271 311.873 566.808C311.702 567.356 311.107 567.692 310.549 567.564C309.968 567.432 309.648 566.887 309.819 566.339Z" fill="#F65E21"/>
<path d="M323.536 578.893C323.696 578.377 324.247 578.065 324.794 578.19C325.329 578.312 325.626 578.818 325.465 579.334C325.305 579.851 324.747 580.184 324.212 580.061C323.665 579.936 323.375 579.409 323.536 578.893Z" fill="#F65E21"/>
<path d="M338.342 590.459C338.486 589.996 338.996 589.698 339.464 589.805C339.943 589.914 340.202 590.389 340.058 590.852C339.915 591.315 339.422 591.594 338.943 591.484C338.475 591.377 338.198 590.922 338.342 590.459Z" fill="#F65E21"/>
<path d="M354.028 600.903C354.175 600.429 354.671 600.139 355.149 600.249C355.628 600.358 355.901 600.824 355.754 601.299C355.608 601.773 355.101 602.06 354.622 601.951C354.143 601.841 353.881 601.377 354.028 600.903Z" fill="#F65E21"/>
<path d="M350.209 225.551C350.356 225.079 350.923 224.759 351.426 224.874C351.939 224.991 352.222 225.505 352.074 225.978C351.923 226.462 351.385 226.765 350.872 226.647C350.369 226.532 350.057 226.035 350.209 225.551Z" fill="#F65E21"/>
<path d="M333.796 234.535C334.004 233.869 334.734 233.483 335.393 233.634C336.074 233.789 336.471 234.433 336.263 235.099C336.056 235.765 335.337 236.153 334.656 235.998C333.997 235.847 333.588 235.201 333.796 234.535Z" fill="#F65E21"/>
<path d="M318.194 244.604C318.446 243.798 319.35 243.28 320.199 243.474C321.081 243.676 321.562 244.51 321.31 245.316C321.056 246.132 320.155 246.64 319.273 246.438C318.424 246.244 317.939 245.42 318.194 244.604Z" fill="#F65E21"/>
<path d="M304.062 255.772C304.277 255.085 305.057 254.653 305.783 254.819C306.532 254.99 306.957 255.697 306.742 256.385C306.504 257.148 305.733 257.547 304.985 257.376C304.259 257.21 303.824 256.535 304.062 255.772Z" fill="#F65E21"/>
<path d="M291.158 268.014C291.299 267.562 291.821 267.267 292.29 267.374C292.77 267.484 293.04 267.96 292.899 268.412C292.751 268.886 292.247 269.162 291.767 269.052C291.299 268.945 291.011 268.488 291.158 268.014Z" fill="#F65E21"/>
<path d="M278.984 281.011C279.108 280.613 279.566 280.372 279.98 280.467C280.416 280.566 280.65 280.965 280.526 281.363C280.388 281.804 279.959 282.028 279.523 281.928C279.11 281.834 278.846 281.451 278.984 281.011Z" fill="#F65E21"/>
<path d="M267.776 294.844C267.914 294.403 268.399 294.111 268.857 294.216C269.303 294.318 269.565 294.781 269.428 295.222C269.297 295.642 268.807 295.91 268.361 295.808C267.903 295.703 267.646 295.264 267.776 294.844Z" fill="#F65E21"/>
<path d="M257.593 309.338C257.77 308.769 258.397 308.405 259 308.543C259.58 308.676 259.924 309.261 259.747 309.831C259.579 310.368 258.934 310.75 258.354 310.618C257.751 310.48 257.425 309.876 257.593 309.338Z" fill="#F65E21"/>
<path d="M248.822 324.514C249.016 323.89 249.703 323.482 250.339 323.628C251.007 323.781 251.378 324.431 251.185 325.055C250.988 325.689 250.289 326.094 249.621 325.941C248.985 325.796 248.625 325.149 248.822 324.514Z" fill="#F65E21"/>
<path d="M241.447 340.297C241.638 339.684 242.326 339.277 242.974 339.425C243.632 339.576 244.003 340.225 243.813 340.838C243.618 341.461 242.922 341.855 242.264 341.704C241.617 341.556 241.253 340.92 241.447 340.297Z" fill="#F65E21"/>
<path d="M235.633 356.603C235.794 356.087 236.365 355.792 236.901 355.915C237.437 356.037 237.749 356.534 237.588 357.05C237.427 357.565 236.857 357.895 236.321 357.773C235.784 357.65 235.472 357.118 235.633 356.603Z" fill="#F65E21"/>
<path d="M230.995 373.28C231.159 372.754 231.733 372.448 232.27 372.57C232.806 372.693 233.125 373.203 232.96 373.73C232.799 374.245 232.222 374.562 231.686 374.44C231.149 374.317 230.833 373.796 230.995 373.28Z" fill="#F65E21"/>
<path d="M227.713 390.22C227.884 389.672 228.491 389.339 229.061 389.469C229.63 389.599 229.951 390.144 229.779 390.692C229.612 391.229 229.016 391.565 228.447 391.435C227.877 391.305 227.545 390.757 227.713 390.22Z" fill="#F65E21"/>
<path d="M226.053 407.406C226.21 406.9 226.718 406.613 227.242 406.733C227.733 406.845 228.051 407.321 227.894 407.827C227.736 408.333 227.18 408.62 226.69 408.508C226.165 408.388 225.895 407.912 226.053 407.406Z" fill="#F65E21"/>
<path d="M225.733 424.686C225.874 424.234 226.393 423.95 226.873 424.06C227.352 424.169 227.615 424.632 227.474 425.084C227.33 425.547 226.83 425.848 226.35 425.738C225.87 425.628 225.589 425.149 225.733 424.686Z" fill="#F65E21"/>
<path d="M226.732 441.956C226.896 441.429 227.436 441.114 227.982 441.239C228.528 441.364 228.836 441.872 228.672 442.399C228.512 442.916 227.943 443.247 227.397 443.122C226.85 442.997 226.571 442.472 226.732 441.956Z" fill="#F65E21"/>
<path d="M229.104 459.114C229.288 458.523 229.926 458.162 230.54 458.303C231.176 458.448 231.531 459.036 231.347 459.627C231.156 460.24 230.503 460.608 229.867 460.463C229.253 460.323 228.913 459.727 229.104 459.114Z" fill="#F65E21"/>
<path d="M232.96 476.128C233.154 475.505 233.85 475.112 234.52 475.265C235.167 475.413 235.52 476.046 235.326 476.669C235.125 477.314 234.457 477.692 233.81 477.544C233.141 477.39 232.759 476.773 232.96 476.128Z" fill="#F65E21"/>
<path d="M238.319 492.874C238.513 492.25 239.205 491.867 239.852 492.015C240.51 492.166 240.866 492.788 240.672 493.412C240.474 494.046 239.801 494.445 239.143 494.295C238.496 494.147 238.121 493.508 238.319 492.874Z" fill="#F65E21"/>
<path d="M245.02 509.261C245.217 508.626 245.913 508.233 246.56 508.381C247.218 508.531 247.571 509.165 247.373 509.799C247.179 510.423 246.509 510.811 245.851 510.66C245.204 510.512 244.826 509.884 245.02 509.261Z" fill="#F65E21"/>
<path d="M253.168 525.198C253.345 524.628 253.969 524.275 254.56 524.411C255.163 524.548 255.499 525.12 255.321 525.69C255.144 526.26 254.517 526.623 253.914 526.485C253.323 526.35 252.99 525.767 253.168 525.198Z" fill="#F65E21"/>
<path d="M262.069 540.472C262.317 539.677 263.202 539.177 264.005 539.36C264.831 539.549 265.307 540.361 265.06 541.156C264.815 541.941 263.934 542.43 263.108 542.241C262.305 542.057 261.825 541.257 262.069 540.472Z" fill="#F65E21"/>
<path d="M271.712 554.969C272.107 553.7 273.514 552.905 274.831 553.206C276.181 553.515 276.939 554.805 276.544 556.074C276.135 557.385 274.731 558.17 273.381 557.861C272.064 557.56 271.304 556.281 271.712 554.969Z" fill="#F65E21"/>
<path d="M283.848 569.093C284.182 568.017 285.342 567.361 286.447 567.614C287.562 567.869 288.176 568.931 287.841 570.006C287.51 571.071 286.361 571.73 285.245 571.475C284.141 571.222 283.516 570.158 283.848 569.093Z" fill="#F65E21"/>
<path d="M297.519 582.489C297.713 581.866 298.409 581.472 299.055 581.62C299.724 581.773 300.077 582.406 299.883 583.03C299.686 583.665 299.009 584.075 298.34 583.922C297.694 583.774 297.322 583.124 297.519 582.489Z" fill="#F65E21"/>
<path d="M311.427 594.858C311.615 594.257 312.295 593.883 312.909 594.024C313.535 594.167 313.895 594.778 313.707 595.379C313.522 595.97 312.86 596.325 312.235 596.182C311.62 596.041 311.242 595.449 311.427 594.858Z" fill="#F65E21"/>
<path d="M326.303 606.277C326.493 605.663 327.134 605.291 327.758 605.434C328.371 605.574 328.733 606.176 328.543 606.789C328.359 607.381 327.689 607.77 327.077 607.629C326.453 607.487 326.119 606.869 326.303 606.277Z" fill="#F65E21"/>
<path d="M341.692 616.604C341.939 615.809 342.774 615.355 343.555 615.533C344.358 615.717 344.817 616.467 344.57 617.263C344.336 618.015 343.491 618.502 342.688 618.318C341.907 618.14 341.458 617.357 341.692 616.604Z" fill="#F65E21"/>
<path d="M357.435 625.763C357.803 624.581 359.077 623.87 360.304 624.151C361.51 624.426 362.212 625.589 361.843 626.771C361.478 627.943 360.19 628.662 358.984 628.386C357.757 628.105 357.069 626.935 357.435 625.763Z" fill="#F65E21"/>
<path d="M351.448 202.64C351.643 202.017 352.332 201.611 352.979 201.759C353.638 201.909 354.009 202.558 353.815 203.181C353.617 203.815 352.931 204.176 352.272 204.026C351.625 203.878 351.251 203.274 351.448 202.64Z" fill="#F65E21"/>
<path d="M334.473 210.772C334.711 210.009 335.578 209.528 336.404 209.717C337.219 209.903 337.68 210.688 337.442 211.451C337.188 212.267 336.331 212.751 335.516 212.564C334.69 212.376 334.218 211.588 334.473 210.772Z" fill="#F65E21"/>
<path d="M318.27 220.009C318.555 219.096 319.552 218.506 320.512 218.726C321.494 218.95 322.027 219.889 321.742 220.803C321.457 221.716 320.456 222.282 319.473 222.057C318.513 221.838 317.986 220.923 318.27 220.009Z" fill="#F65E21"/>
<path d="M303.135 230.259C303.412 229.366 304.412 228.8 305.337 229.011C306.273 229.226 306.79 230.139 306.513 231.032C306.228 231.946 305.251 232.517 304.314 232.303C303.389 232.091 302.85 231.173 303.135 230.259Z" fill="#F65E21"/>
<path d="M289.195 241.563C289.404 240.898 290.171 240.475 290.876 240.636C291.58 240.797 291.998 241.49 291.789 242.156C291.584 242.81 290.817 243.233 290.113 243.072C289.408 242.911 288.99 242.218 289.195 241.563Z" fill="#F65E21"/>
<path d="M276.383 253.758C276.496 253.392 276.923 253.132 277.302 253.219C277.703 253.31 277.934 253.721 277.82 254.087C277.707 254.453 277.265 254.721 276.864 254.63C276.485 254.543 276.269 254.124 276.383 253.758Z" fill="#F65E21"/>
<path d="M264.107 266.686C264.202 266.386 264.539 266.233 264.844 266.302C265.159 266.374 265.34 266.646 265.246 266.946C265.155 267.236 264.826 267.437 264.51 267.365C264.206 267.295 264.017 266.976 264.107 266.686Z" fill="#F65E21"/>
<path d="M252.628 280.347C252.745 279.971 253.149 279.752 253.517 279.836C253.886 279.92 254.097 280.28 253.979 280.656C253.872 281 253.483 281.211 253.115 281.126C252.746 281.042 252.521 280.691 252.628 280.347Z" fill="#F65E21"/>
<path d="M242.241 294.646C242.364 294.247 242.852 293.944 243.286 294.043C243.743 294.148 243.99 294.62 243.867 295.018C243.727 295.471 243.246 295.753 242.789 295.648C242.355 295.549 242.101 295.099 242.241 294.646Z" fill="#F65E21"/>
<path d="M233.103 309.659C233.24 309.217 233.724 308.924 234.181 309.029C234.626 309.131 234.866 309.589 234.729 310.031C234.599 310.451 234.129 310.736 233.684 310.634C233.227 310.53 232.973 310.079 233.103 309.659Z" fill="#F65E21"/>
<path d="M225.367 325.257C225.468 324.934 225.847 324.756 226.171 324.83C226.517 324.91 226.708 325.218 226.607 325.54C226.5 325.884 226.151 326.08 225.804 326.001C225.48 325.927 225.259 325.6 225.367 325.257Z" fill="#F65E21"/>
<path d="M218.926 341.346C218.984 341.165 219.212 341.056 219.404 341.1C219.607 341.146 219.729 341.335 219.672 341.516C219.608 341.72 219.394 341.82 219.191 341.774C218.999 341.73 218.862 341.55 218.926 341.346Z" fill="#F65E21"/>
<path d="M213.601 357.82C213.645 357.681 213.797 357.623 213.944 357.657C214.091 357.69 214.177 357.802 214.133 357.941C214.092 358.069 213.941 358.161 213.794 358.127C213.647 358.094 213.56 357.948 213.601 357.82Z" fill="#F65E21"/>
<path d="M209.405 374.569C209.452 374.419 209.642 374.313 209.811 374.351C209.969 374.387 210.083 374.563 210.036 374.713C209.985 374.874 209.784 374.977 209.626 374.941C209.457 374.903 209.354 374.73 209.405 374.569Z" fill="#F65E21"/>
<path d="M206.067 391.484C206.194 391.075 206.672 390.769 207.13 390.874C207.576 390.976 207.846 391.453 207.718 391.861C207.581 392.303 207.08 392.568 206.634 392.466C206.176 392.361 205.93 391.925 206.067 391.484Z" fill="#F65E21"/>
<path d="M204.334 408.633C204.505 408.085 205.1 407.75 205.659 407.877C206.239 408.01 206.571 408.557 206.4 409.105C206.232 409.642 205.625 409.975 205.045 409.843C204.486 409.715 204.166 409.17 204.334 408.633Z" fill="#F65E21"/>
<path d="M204.422 425.977C204.552 425.558 204.976 425.309 205.423 425.411C205.835 425.505 206.092 425.91 205.961 426.329C205.837 426.727 205.373 426.99 204.96 426.896C204.514 426.793 204.298 426.375 204.422 425.977Z" fill="#F65E21"/>
<path d="M205.604 443.274C205.721 442.897 206.131 442.657 206.533 442.749C206.945 442.843 207.15 443.224 207.032 443.601C206.915 443.977 206.517 444.22 206.104 444.126C205.702 444.034 205.487 443.65 205.604 443.274Z" fill="#F65E21"/>
<path d="M207.71 460.399C207.887 459.829 208.514 459.466 209.105 459.601C209.697 459.736 210.052 460.324 209.874 460.894C209.697 461.463 209.047 461.821 208.456 461.686C207.865 461.551 207.532 460.968 207.71 460.399Z" fill="#F65E21"/>
<path d="M211.389 477.421C211.587 476.787 212.268 476.401 212.915 476.549C213.573 476.7 213.94 477.325 213.742 477.96C213.548 478.583 212.864 478.979 212.206 478.829C211.559 478.681 211.195 478.045 211.389 477.421Z" fill="#F65E21"/>
<path d="M216.404 494.218C216.612 493.551 217.319 493.16 218 493.316C218.692 493.474 219.066 494.113 218.859 494.779C218.655 495.435 217.955 495.839 217.263 495.681C216.583 495.525 216.2 494.874 216.404 494.218Z" fill="#F65E21"/>
<path d="M222.645 510.671C222.862 509.972 223.656 509.532 224.381 509.697C225.117 509.866 225.516 510.579 225.299 511.278C225.075 511.999 224.315 512.447 223.579 512.279C222.854 512.113 222.421 511.392 222.645 510.671Z" fill="#F65E21"/>
<path d="M230.547 526.824C230.711 526.298 231.294 525.959 231.863 526.089C232.443 526.222 232.752 526.764 232.588 527.291C232.411 527.861 231.828 528.2 231.248 528.067C230.679 527.937 230.37 527.394 230.547 526.824Z" fill="#F65E21"/>
<path d="M238.716 542.305C238.987 541.434 239.93 540.901 240.834 541.108C241.738 541.315 242.279 542.187 242.008 543.057C241.737 543.928 240.75 544.485 239.846 544.279C238.943 544.072 238.445 543.175 238.716 542.305Z" fill="#F65E21"/>
<path d="M247.458 557.081C247.924 555.586 249.589 554.654 251.14 555.009C252.691 555.364 253.581 556.88 253.116 558.375C252.647 559.88 250.993 560.814 249.442 560.46C247.891 560.105 246.99 558.586 247.458 557.081Z" fill="#F65E21"/>
<path d="M257.814 571.38C258.403 569.487 260.469 568.301 262.421 568.747C264.395 569.199 265.474 571.105 264.886 572.998C264.303 574.869 262.263 576.05 260.289 575.598C258.338 575.152 257.232 573.252 257.814 571.38Z" fill="#F65E21"/>
<path d="M269.728 585.058C270.351 583.058 272.536 581.842 274.612 582.317C276.688 582.791 277.863 584.776 277.239 586.775C276.616 588.774 274.44 590.004 272.364 589.529C270.288 589.054 269.105 587.057 269.728 585.058Z" fill="#F65E21"/>
<path d="M283.177 598.122C283.746 596.294 285.747 595.162 287.655 595.598C289.54 596.029 290.618 597.865 290.049 599.693C289.477 601.532 287.475 602.664 285.59 602.232C283.682 601.796 282.604 599.96 283.177 598.122Z" fill="#F65E21"/>
<path d="M298.273 610.522C298.668 609.254 300.076 608.459 301.405 608.763C302.744 609.069 303.513 610.362 303.118 611.63C302.715 612.92 301.296 613.712 299.957 613.406C298.628 613.102 297.871 611.812 298.273 610.522Z" fill="#F65E21"/>
<path d="M314.196 622.045C314.433 621.281 315.263 620.803 316.055 620.984C316.869 621.17 317.3 621.937 317.062 622.7C316.825 623.464 316.006 623.945 315.192 623.758C314.4 623.577 313.958 622.808 314.196 622.045Z" fill="#F65E21"/>
<path d="M330.086 632.448C330.301 631.76 331.055 631.334 331.77 631.497C332.473 631.658 332.89 632.352 332.676 633.04C332.465 633.717 331.699 634.141 330.996 633.98C330.281 633.816 329.875 633.125 330.086 632.448Z" fill="#F65E21"/>
<path d="M345.853 641.662C346.182 640.609 347.335 639.94 348.462 640.198C349.556 640.448 350.189 641.525 349.86 642.578C349.529 643.642 348.357 644.295 347.263 644.045C346.135 643.787 345.522 642.726 345.853 641.662Z" fill="#F65E21"/>
<path d="M352.763 180.167C353.04 179.275 353.994 178.744 354.92 178.956C355.823 179.163 356.331 180.027 356.053 180.92C355.772 181.823 354.833 182.345 353.929 182.138C353.004 181.927 352.482 181.07 352.763 180.167Z" fill="#F65E21"/>
<path d="M335.6 187.671C335.878 186.779 336.868 186.211 337.806 186.426C338.754 186.642 339.271 187.555 338.993 188.447C338.705 189.371 337.739 189.899 336.791 189.682C335.853 189.467 335.312 188.595 335.6 187.671Z" fill="#F65E21"/>
<path d="M319.025 196.156C319.322 195.199 320.347 194.592 321.351 194.822C322.343 195.049 322.913 196.02 322.615 196.977C322.314 197.945 321.26 198.533 320.267 198.306C319.263 198.076 318.724 197.124 319.025 196.156Z" fill="#F65E21"/>
<path d="M303.705 205.727C303.919 205.038 304.665 204.598 305.367 204.759C306.092 204.925 306.483 205.625 306.269 206.313C306.056 207.002 305.317 207.42 304.592 207.254C303.889 207.094 303.491 206.415 303.705 205.727Z" fill="#F65E21"/>
<path d="M289.184 216.192C289.295 215.837 289.709 215.62 290.099 215.71C290.501 215.802 290.712 216.161 290.601 216.516C290.471 216.935 290.076 217.168 289.674 217.076C289.284 216.987 289.054 216.611 289.184 216.192Z" fill="#F65E21"/>
<path d="M275.013 227.474C275.113 227.152 275.443 226.986 275.758 227.058C276.084 227.133 276.262 227.415 276.161 227.737C276.067 228.037 275.745 228.217 275.419 228.142C275.104 228.07 274.918 227.775 275.013 227.474Z" fill="#F65E21"/>
<path d="M261.589 239.521C261.683 239.22 262.014 239.008 262.317 239.077C262.665 239.157 262.829 239.483 262.735 239.784C262.648 240.063 262.321 240.265 261.972 240.185C261.669 240.116 261.502 239.801 261.589 239.521Z" fill="#F65E21"/>
<path d="M249.164 252.32C249.231 252.105 249.511 251.938 249.757 251.994C250.037 252.059 250.161 252.318 250.095 252.533C250.012 252.803 249.751 252.985 249.471 252.921C249.224 252.865 249.081 252.59 249.164 252.32Z" fill="#F65E21"/>
<path d="M237.871 265.935C237.908 265.818 238.018 265.774 238.131 265.799C238.255 265.828 238.324 265.913 238.288 266.031C238.257 266.127 238.131 266.225 238.007 266.196C237.894 266.171 237.841 266.032 237.871 265.935Z" fill="#F65E21"/>
<path d="M227.076 280.081C227.156 279.823 227.404 279.684 227.674 279.746C227.921 279.802 228.078 280.034 227.997 280.292C227.927 280.518 227.643 280.695 227.396 280.639C227.127 280.577 227.006 280.307 227.076 280.081Z" fill="#F65E21"/>
<path d="M217.254 294.808C217.377 294.409 217.841 294.146 218.253 294.241C218.688 294.34 218.915 294.761 218.791 295.16C218.661 295.58 218.22 295.848 217.785 295.748C217.373 295.654 217.123 295.228 217.254 294.808Z" fill="#F65E21"/>
<path d="M209.289 310.237C209.346 310.054 209.55 309.94 209.73 309.981C209.933 310.027 210.043 310.214 209.986 310.397C209.926 310.59 209.725 310.694 209.522 310.647C209.343 310.606 209.229 310.431 209.289 310.237Z" fill="#F65E21"/>
<path d="M202.195 326.089C202.215 326.025 202.321 325.957 202.4 325.975C202.467 325.99 202.519 326.094 202.499 326.159C202.462 326.277 202.377 326.28 202.309 326.265C202.23 326.247 202.158 326.207 202.195 326.089Z" fill="#F65E21"/>
<path d="M196.063 342.353C196.094 342.257 196.191 342.222 196.304 342.248C196.384 342.266 196.446 342.337 196.415 342.433C196.395 342.497 196.288 342.564 196.209 342.546C196.095 342.52 196.043 342.417 196.063 342.353Z" fill="#F65E21"/>
<path d="M191.229 358.928C191.239 358.896 191.3 358.852 191.333 358.859C191.411 358.877 191.439 358.942 191.43 358.974C191.41 359.039 191.345 359.094 191.268 359.076C191.234 359.069 191.209 358.993 191.229 358.928Z" fill="#F65E21"/>
<path d="M187.538 375.807C187.541 375.796 187.584 375.772 187.629 375.782C187.629 375.782 187.652 375.822 187.649 375.832L187.596 375.888C187.551 375.878 187.522 375.86 187.538 375.807Z" fill="#F65E21"/>
<path d="M184.867 392.848C184.9 392.74 185.042 392.669 185.166 392.698C185.244 392.716 185.315 392.835 185.282 392.943C185.245 393.061 185.118 393.124 185.039 393.106C184.916 393.078 184.83 392.966 184.867 392.848Z" fill="#F65E21"/>
<path d="M183.712 410.098C183.731 410.035 183.782 410.024 183.815 410.032C183.893 410.049 183.931 410.081 183.911 410.143C183.891 410.206 183.834 410.238 183.756 410.22C183.723 410.213 183.692 410.161 183.712 410.098Z" fill="#F65E21"/>
<path d="M183.512 427.34C183.548 427.221 183.686 427.126 183.843 427.162C183.966 427.19 184.041 427.334 184.005 427.453C183.961 427.593 183.813 427.686 183.69 427.658C183.533 427.622 183.469 427.48 183.512 427.34Z" fill="#F65E21"/>
<path d="M184.354 444.565C184.448 444.264 184.791 444.055 185.106 444.127C185.41 444.196 185.607 444.529 185.513 444.83C185.422 445.12 185.067 445.292 184.763 445.222C184.448 445.15 184.263 444.855 184.354 444.565Z" fill="#F65E21"/>
<path d="M186.515 461.718C186.653 461.278 187.144 461.01 187.602 461.115C188.072 461.222 188.318 461.659 188.18 462.099C188.046 462.529 187.581 462.791 187.111 462.683C186.653 462.579 186.38 462.148 186.515 461.718Z" fill="#F65E21"/>
<path d="M189.92 478.725C190.1 478.144 190.746 477.797 191.314 477.927C191.916 478.064 192.241 478.634 192.06 479.215C191.883 479.785 191.268 480.152 190.666 480.014C190.097 479.884 189.743 479.296 189.92 478.725Z" fill="#F65E21"/>
<path d="M194.409 495.49C194.643 494.738 195.484 494.262 196.288 494.446C197.069 494.625 197.522 495.396 197.288 496.148C197.046 496.923 196.205 497.398 195.424 497.219C194.621 497.036 194.168 496.264 194.409 495.49Z" fill="#F65E21"/>
<path d="M200.328 512.049C200.582 511.232 201.482 510.724 202.33 510.918C203.179 511.112 203.663 511.936 203.408 512.753C203.15 513.581 202.257 514.067 201.409 513.873C200.561 513.679 200.07 512.876 200.328 512.049Z" fill="#F65E21"/>
<path d="M207.781 528.343C207.998 527.644 208.738 527.226 209.43 527.384C210.155 527.55 210.554 528.229 210.336 528.927C210.122 529.615 209.389 530.012 208.663 529.846C207.972 529.688 207.566 529.031 207.781 528.343Z" fill="#F65E21"/>
<path d="M216.292 544.2C216.472 543.62 217.11 543.259 217.69 543.391C218.293 543.529 218.625 544.112 218.444 544.693C218.274 545.241 217.644 545.615 217.041 545.477C216.461 545.345 216.121 544.749 216.292 544.2Z" fill="#F65E21"/>
<path d="M223.91 559.103C224.389 557.566 226.069 556.626 227.654 556.988C229.239 557.35 230.137 558.88 229.658 560.417C229.182 561.944 227.517 562.876 225.932 562.513C224.348 562.151 223.435 560.629 223.91 559.103Z" fill="#F65E21"/>
<path d="M233.946 573.777C234.498 572.003 236.419 570.899 238.271 571.322C240.112 571.743 241.158 573.526 240.606 575.3C240.054 577.074 238.11 578.173 236.269 577.752C234.417 577.329 233.393 575.551 233.946 573.777Z" fill="#F65E21"/>
<path d="M245.42 587.935C245.966 586.183 247.911 585.085 249.753 585.506C251.595 585.927 252.664 587.714 252.118 589.466C251.562 591.25 249.594 592.343 247.753 591.922C245.91 591.501 244.864 589.719 245.42 587.935Z" fill="#F65E21"/>
<path d="M257.817 601.438C258.38 599.631 260.364 598.518 262.227 598.944C264.101 599.373 265.152 601.18 264.589 602.986C264.027 604.793 262.066 605.911 260.191 605.482C258.328 605.056 257.255 603.244 257.817 601.438Z" fill="#F65E21"/>
<path d="M270.88 614.159C271.49 612.202 273.651 610.981 275.683 611.445C277.725 611.912 278.9 613.897 278.29 615.853C277.677 617.82 275.504 619.039 273.462 618.572C271.431 618.108 270.267 616.126 270.88 614.159Z" fill="#F65E21"/>
<path d="M284.442 626.031C285.172 623.688 287.705 622.275 290.138 622.831C292.538 623.38 293.922 625.689 293.192 628.032C292.472 630.343 289.918 631.786 287.518 631.237C285.085 630.681 283.722 628.342 284.442 626.031Z" fill="#F65E21"/>
<path d="M300.628 637.488C301.164 635.767 303.027 634.696 304.823 635.107C306.608 635.515 307.612 637.242 307.076 638.963C306.541 640.683 304.67 641.741 302.885 641.333C301.089 640.922 300.093 639.208 300.628 637.488Z" fill="#F65E21"/>
<path d="M317.88 648.155C318.171 647.219 319.197 646.648 320.145 646.864C321.116 647.086 321.662 648.018 321.371 648.953C321.087 649.867 320.065 650.463 319.094 650.241C318.146 650.024 317.595 649.068 317.88 648.155Z" fill="#F65E21"/>
<path d="M334.746 657.657C334.963 656.958 335.721 656.521 336.48 656.695C337.216 656.863 337.63 657.568 337.412 658.267C337.185 658.998 336.416 659.432 335.68 659.264C334.921 659.09 334.518 658.388 334.746 657.657Z" fill="#F65E21"/>
<path d="M351.29 666.015C351.591 665.048 352.669 664.431 353.684 664.663C354.722 664.9 355.297 665.895 354.996 666.862C354.691 667.84 353.614 668.457 352.576 668.22C351.56 667.988 350.985 666.993 351.29 666.015Z" fill="#F65E21"/>
<path d="M354.374 158.15C354.718 157.042 355.911 156.359 357.037 156.616C358.175 156.876 358.8 157.976 358.456 159.084C358.118 160.17 356.944 160.835 355.806 160.574C354.68 160.317 354.036 159.236 354.374 158.15Z" fill="#F65E21"/>
<path d="M336.86 165.041C337.221 163.88 338.435 163.201 339.606 163.469C340.755 163.731 341.414 164.839 341.052 166C340.708 167.108 339.487 167.809 338.339 167.546C337.168 167.278 336.516 166.149 336.86 165.041Z" fill="#F65E21"/>
<path d="M320.244 172.9C320.541 171.943 321.574 171.35 322.578 171.58C323.571 171.807 324.145 172.767 323.847 173.724C323.546 174.692 322.487 175.29 321.494 175.063C320.49 174.834 319.943 173.868 320.244 172.9Z" fill="#F65E21"/>
<path d="M304.206 181.719C304.457 180.912 305.304 180.415 306.13 180.604C306.966 180.795 307.401 181.586 307.15 182.393C306.909 183.167 306.077 183.656 305.24 183.465C304.415 183.276 303.966 182.494 304.206 181.719Z" fill="#F65E21"/>
<path d="M288.843 191.399C289.041 190.765 289.712 190.412 290.326 190.552C290.94 190.693 291.295 191.28 291.097 191.915C290.913 192.506 290.264 192.864 289.65 192.724C289.036 192.583 288.659 191.99 288.843 191.399Z" fill="#F65E21"/>
<path d="M273.945 201.852C274.106 201.336 274.705 200.99 275.263 201.117C275.844 201.25 276.172 201.808 276.011 202.324C275.84 202.872 275.227 203.227 274.646 203.094C274.088 202.967 273.775 202.4 273.945 201.852Z" fill="#F65E21"/>
<path d="M259.98 213.179C260.093 212.813 260.522 212.542 260.912 212.631C261.324 212.725 261.518 213.139 261.405 213.506C261.291 213.872 260.887 214.137 260.475 214.043C260.086 213.954 259.866 213.546 259.98 213.179Z" fill="#F65E21"/>
<path d="M246.757 225.254C246.841 224.985 247.098 224.86 247.368 224.922C247.627 224.981 247.776 225.199 247.692 225.467C247.608 225.736 247.351 225.861 247.092 225.802C246.822 225.74 246.673 225.522 246.757 225.254Z" fill="#F65E21"/>
<path d="M234.394 238.06C234.432 237.943 234.558 237.892 234.682 237.92C234.784 237.943 234.862 238.041 234.825 238.158C234.791 238.265 234.665 238.316 234.563 238.293C234.439 238.265 234.36 238.167 234.394 238.06Z" fill="#F65E21"/>
<path d="M222.794 251.527C222.82 251.443 222.871 251.433 222.905 251.44C222.983 251.458 223.021 251.489 222.994 251.573C222.981 251.614 222.926 251.636 222.849 251.618C222.815 251.61 222.78 251.569 222.794 251.527Z" fill="#F65E21"/>
<path d="M202.25 280.183C202.26 280.152 202.26 280.152 202.305 280.162C202.339 280.169 202.339 280.169 202.329 280.2C202.318 280.231 202.318 280.231 202.285 280.224C202.24 280.213 202.24 280.213 202.25 280.183Z" fill="#F65E21"/>
<path d="M193.357 295.318C193.37 295.275 193.472 295.218 193.517 295.228C193.551 295.236 193.606 295.329 193.593 295.372C193.583 295.405 193.48 295.462 193.447 295.454C193.402 295.444 193.346 295.351 193.357 295.318Z" fill="#F65E21"/>
<path d="M185.643 310.954C185.654 310.925 185.701 310.935 185.725 310.94C185.725 310.94 185.784 310.953 185.773 310.981C185.766 311 185.707 310.987 185.707 310.987C185.683 310.982 185.636 310.972 185.643 310.954Z" fill="#F65E21"/>
<path d="M163.207 445.856C163.264 445.674 163.469 445.56 163.65 445.601C163.886 445.655 163.997 445.841 163.94 446.023C163.876 446.227 163.671 446.342 163.434 446.288C163.254 446.246 163.143 446.06 163.207 445.856Z" fill="#F65E21"/>
<path d="M165.431 463.027C165.508 462.78 165.816 462.609 166.098 462.674C166.403 462.743 166.569 463.022 166.491 463.269C166.404 463.547 166.096 463.718 165.791 463.649C165.509 463.584 165.343 463.305 165.431 463.027Z" fill="#F65E21"/>
<path d="M168.734 480.078C168.855 479.692 169.305 479.484 169.685 479.571C170.077 479.66 170.322 480.027 170.201 480.413C170.079 480.799 169.652 481.012 169.26 480.922C168.88 480.835 168.612 480.464 168.734 480.078Z" fill="#F65E21"/>
<path d="M172.924 496.863C173.115 496.251 173.809 495.868 174.467 496.019C175.115 496.167 175.505 496.797 175.314 497.409C175.112 498.053 174.404 498.444 173.756 498.296C173.098 498.145 172.723 497.507 172.924 496.863Z" fill="#F65E21"/>
<path d="M178.52 513.499C178.747 512.768 179.519 512.323 180.289 512.499C181.003 512.662 181.413 513.378 181.186 514.109C180.971 514.797 180.2 515.243 179.486 515.079C178.716 514.903 178.306 514.187 178.52 513.499Z" fill="#F65E21"/>
<path d="M185.326 529.805C185.557 529.063 186.354 528.612 187.124 528.789C187.894 528.965 188.324 529.696 188.093 530.438C187.862 531.18 187.064 531.63 186.294 531.454C185.524 531.278 185.095 530.547 185.326 529.805Z" fill="#F65E21"/>
<path d="M193.175 545.766C193.409 545.014 194.246 544.514 195.06 544.7C195.842 544.879 196.299 545.674 196.065 546.427C195.83 547.179 194.974 547.663 194.193 547.484C193.379 547.298 192.94 546.519 193.175 545.766Z" fill="#F65E21"/>
<path d="M201.456 561.153C201.801 560.046 203.026 559.336 204.198 559.604C205.347 559.866 206.019 561.01 205.674 562.118C205.322 563.247 204.082 563.93 202.932 563.668C201.761 563.4 201.105 562.282 201.456 561.153Z" fill="#F65E21"/>
<path d="M210.323 575.969C210.852 574.27 212.698 573.218 214.473 573.624C216.225 574.025 217.236 575.73 216.706 577.428C216.177 579.127 214.312 580.163 212.56 579.762C210.786 579.357 209.794 577.667 210.323 575.969Z" fill="#F65E21"/>
<path d="M220.933 590.411C221.509 588.561 223.554 587.405 225.473 587.844C227.414 588.288 228.493 590.159 227.917 592.008C227.331 593.89 225.315 595.03 223.374 594.586C221.455 594.147 220.347 592.293 220.933 590.411Z" fill="#F65E21"/>
<path d="M232.677 604.329C233.273 602.416 235.362 601.235 237.371 601.694C239.347 602.146 240.482 604.064 239.886 605.978C239.287 607.902 237.186 609.08 235.211 608.628C233.202 608.169 232.077 606.253 232.677 604.329Z" fill="#F65E21"/>
<path d="M245.583 617.666C246.152 615.838 248.139 614.715 250.048 615.151C251.944 615.585 253.026 617.41 252.456 619.238C251.884 621.076 249.882 622.208 247.985 621.774C246.077 621.337 245.01 619.504 245.583 617.666Z" fill="#F65E21"/>
<path d="M259.209 630.3C259.771 628.493 261.729 627.386 263.604 627.815C265.467 628.241 266.543 630.042 265.981 631.849C265.419 633.655 263.431 634.779 261.568 634.352C259.694 633.924 258.647 632.106 259.209 630.3Z" fill="#F65E21"/>
<path d="M273.059 642.086C273.715 639.978 275.967 638.696 278.131 639.191C280.285 639.684 281.514 641.762 280.858 643.869C280.212 645.945 277.941 647.211 275.788 646.718C273.624 646.223 272.413 644.161 273.059 642.086Z" fill="#F65E21"/>
<path d="M287.854 653.102C288.551 650.867 291.011 649.495 293.332 650.025C295.654 650.556 296.977 652.793 296.28 655.029C295.58 657.276 293.131 658.65 290.81 658.119C288.488 657.589 287.154 655.349 287.854 653.102Z" fill="#F65E21"/>
<path d="M304.064 663.492C304.69 661.483 306.919 660.242 309.017 660.722C311.105 661.199 312.303 663.223 311.677 665.233C311.043 667.264 308.829 668.497 306.742 668.019C304.643 667.54 303.43 665.524 304.064 663.492Z" fill="#F65E21"/>
<path d="M321.266 673.12C321.769 671.508 323.544 670.532 325.208 670.912C326.882 671.295 327.853 672.899 327.351 674.511C326.844 676.134 325.066 677.12 323.391 676.737C321.728 676.357 320.76 674.743 321.266 673.12Z" fill="#F65E21"/>
<path d="M338.339 681.708C338.828 680.139 340.55 679.139 342.213 679.519C343.842 679.892 344.787 681.501 344.298 683.071C343.806 684.652 342.054 685.633 340.425 685.26C338.762 684.88 337.847 683.289 338.339 681.708Z" fill="#F65E21"/>
<path d="M355.018 689.181C355.65 687.149 357.87 685.895 359.957 686.372C362.065 686.854 363.26 688.889 362.627 690.921C362.001 692.932 359.782 694.186 357.673 693.704C355.586 693.227 354.391 691.192 355.018 689.181Z" fill="#F65E21"/>
<path d="M355.441 136.324C355.963 134.646 357.797 133.591 359.526 133.987C361.267 134.385 362.233 136.08 361.711 137.758C361.195 139.413 359.382 140.439 357.642 140.041C355.912 139.645 354.925 137.98 355.441 136.324Z" fill="#F65E21"/>
<path d="M337.474 142.585C338.037 140.779 340.004 139.685 341.867 140.111C343.742 140.54 344.811 142.328 344.248 144.134C343.696 145.907 341.712 147.055 339.837 146.626C337.974 146.2 336.922 144.358 337.474 142.585Z" fill="#F65E21"/>
<path d="M320.962 149.959C321.398 148.562 322.904 147.72 324.355 148.052C325.794 148.381 326.621 149.756 326.186 151.153C325.75 152.551 324.23 153.401 322.79 153.072C321.339 152.74 320.527 151.357 320.962 149.959Z" fill="#F65E21"/>
<path d="M304.028 157.99C304.487 156.517 306.113 155.634 307.62 155.979C309.161 156.331 310.023 157.783 309.564 159.256C309.095 160.76 307.505 161.64 305.965 161.288C304.458 160.944 303.558 159.494 304.028 157.99Z" fill="#F65E21"/>
<path d="M287.815 166.92C288.278 165.437 289.896 164.54 291.415 164.888C292.955 165.24 293.837 166.708 293.374 168.191C292.912 169.674 291.293 170.571 289.753 170.219C288.234 169.872 287.353 168.403 287.815 166.92Z" fill="#F65E21"/>
<path d="M273.033 176.843C273.351 175.821 274.499 175.162 275.57 175.407C276.652 175.655 277.243 176.711 276.925 177.733C276.604 178.765 275.478 179.429 274.396 179.182C273.325 178.937 272.712 177.875 273.033 176.843Z" fill="#F65E21"/>
<path d="M259.165 187.606C259.306 187.155 259.819 186.892 260.311 187.005C260.792 187.115 261.061 187.556 260.92 188.007C260.768 188.49 260.274 188.769 259.793 188.659C259.302 188.547 259.014 188.089 259.165 187.606Z" fill="#F65E21"/>
<path d="M245.586 199.055C245.616 198.958 245.754 198.863 245.866 198.889C245.956 198.909 246.031 199.053 246.001 199.15C245.968 199.257 245.829 199.318 245.739 199.297C245.627 199.272 245.553 199.162 245.586 199.055Z" fill="#F65E21"/>
<path d="M232.217 211.054C232.227 211.023 232.282 211.001 232.337 211.014C232.404 211.029 232.428 211.068 232.418 211.1C232.395 211.173 232.348 211.207 232.281 211.191C232.225 211.179 232.194 211.127 232.217 211.054Z" fill="#F65E21"/>
<path d="M219.471 223.753C219.499 223.669 219.59 223.656 219.635 223.666C219.67 223.674 219.74 223.723 219.712 223.807C219.702 223.838 219.614 223.841 219.58 223.833C219.534 223.823 219.46 223.784 219.471 223.753Z" fill="#F65E21"/>
<path d="M207.659 237.045C207.669 237.014 207.709 237 207.754 237.01C207.832 237.028 207.858 237.057 207.848 237.088C207.825 237.162 207.778 237.196 207.7 237.178C207.656 237.168 207.636 237.119 207.659 237.045Z" fill="#F65E21"/>
<path d="M142.065 447.169C142.088 447.094 142.131 447.035 142.255 447.063C142.333 447.081 142.392 447.164 142.369 447.239C142.345 447.314 142.243 447.371 142.164 447.353C142.04 447.325 142.041 447.245 142.065 447.169Z" fill="#F65E21"/>
<path d="M144.325 464.366C144.355 464.27 144.483 464.207 144.607 464.235C144.72 464.261 144.772 464.365 144.742 464.461C144.705 464.579 144.599 464.647 144.486 464.621C144.362 464.593 144.288 464.484 144.325 464.366Z" fill="#F65E21"/>
<path d="M147.61 481.433C147.663 481.261 147.856 481.144 148.047 481.187C148.249 481.234 148.36 481.42 148.306 481.592C148.243 481.797 148.039 481.912 147.837 481.865C147.646 481.822 147.546 481.638 147.61 481.433Z" fill="#F65E21"/>
<path d="M151.904 498.326C151.981 498.079 152.289 497.908 152.559 497.97C152.864 498.039 153.03 498.319 152.952 498.565C152.865 498.844 152.557 499.016 152.253 498.946C151.982 498.884 151.816 498.605 151.904 498.326Z" fill="#F65E21"/>
<path d="M157.045 514.961C157.193 514.488 157.691 514.198 158.204 514.316C158.662 514.42 158.969 514.894 158.822 515.367C158.677 515.829 158.135 516.108 157.677 516.003C157.163 515.886 156.901 515.423 157.045 514.961Z" fill="#F65E21"/>
<path d="M163.314 531.322C163.511 530.687 164.158 530.293 164.815 530.443C165.461 530.591 165.839 531.219 165.642 531.855C165.448 532.479 164.75 532.884 164.104 532.736C163.447 532.586 163.12 531.946 163.314 531.322Z" fill="#F65E21"/>
<path d="M170.591 547.36C170.825 546.607 171.635 546.112 172.448 546.299C173.25 546.482 173.666 547.257 173.432 548.011C173.195 548.775 172.386 549.269 171.583 549.086C170.77 548.9 170.354 548.125 170.591 547.36Z" fill="#F65E21"/>
<path d="M179.152 563.093C179.383 562.351 180.192 561.903 180.963 562.079C181.733 562.255 182.163 562.987 181.931 563.728C181.7 564.47 180.902 564.92 180.132 564.744C179.362 564.568 178.921 563.834 179.152 563.093Z" fill="#F65E21"/>
<path d="M188.127 578.254C188.435 577.265 189.54 576.631 190.6 576.874C191.649 577.114 192.228 578.133 191.921 579.121C191.599 580.153 190.511 580.768 189.462 580.528C188.402 580.286 187.805 579.286 188.127 578.254Z" fill="#F65E21"/>
<path d="M199.243 593.252C199.44 592.618 200.145 592.238 200.804 592.388C201.451 592.536 201.818 593.161 201.62 593.795C201.426 594.418 200.741 594.814 200.093 594.666C199.434 594.516 199.048 593.875 199.243 593.252Z" fill="#F65E21"/>
<path d="M210.747 607.595C210.912 607.069 211.49 606.752 212.026 606.875C212.574 607 212.89 607.521 212.725 608.047C212.564 608.562 211.99 608.868 211.442 608.743C210.906 608.62 210.586 608.11 210.747 607.595Z" fill="#F65E21"/>
<path d="M220.592 620.785C221.138 619.033 223.072 617.967 224.869 618.377C226.699 618.796 227.722 620.538 227.176 622.291C226.634 624.032 224.726 625.128 222.896 624.709C221.099 624.298 220.049 622.527 220.592 620.785Z" fill="#F65E21"/>
<path d="M233.589 633.91C234.138 632.147 236.049 631.075 237.845 631.485C239.674 631.904 240.697 633.647 240.148 635.411C239.609 637.142 237.7 638.249 235.87 637.83C234.075 637.42 233.05 635.642 233.589 633.91Z" fill="#F65E21"/>
<path d="M247.297 646.348C247.849 644.574 249.785 643.461 251.626 643.882C253.466 644.303 254.521 646.1 253.968 647.874C253.413 649.659 251.461 650.744 249.621 650.323C247.78 649.902 246.741 648.133 247.297 646.348Z" fill="#F65E21"/>
<path d="M261.492 658.04C262.091 656.115 264.209 654.918 266.206 655.374C268.214 655.834 269.354 657.776 268.755 659.701C268.149 661.647 266.031 662.845 264.023 662.385C262.026 661.929 260.886 659.986 261.492 658.04Z" fill="#F65E21"/>
<path d="M276.484 669.047C277.111 667.037 279.337 665.761 281.435 666.241C283.522 666.718 284.733 668.78 284.107 670.79C283.48 672.8 281.238 674.05 279.151 673.572C277.053 673.093 275.858 671.058 276.484 669.047Z" fill="#F65E21"/>
<path d="M292.252 679.312C292.895 677.248 295.152 675.991 297.272 676.476C299.392 676.961 300.607 679.012 299.963 681.076C299.327 683.118 297.081 684.378 294.961 683.894C292.841 683.409 291.616 681.355 292.252 679.312Z" fill="#F65E21"/>
<path d="M308.627 688.764C309.274 686.689 311.545 685.424 313.699 685.916C315.853 686.409 317.075 688.473 316.428 690.548C315.782 692.623 313.515 693.913 311.361 693.42C309.207 692.928 307.981 690.839 308.627 688.764Z" fill="#F65E21"/>
<path d="M325.515 697.398C326.165 695.313 328.472 694.009 330.671 694.512C332.858 695.012 334.089 697.125 333.439 699.21C332.779 701.327 330.486 702.623 328.299 702.122C326.1 701.62 324.855 699.515 325.515 697.398Z" fill="#F65E21"/>
<path d="M342.961 705.204C343.614 703.108 345.909 701.801 348.107 702.304C350.294 702.804 351.536 704.919 350.883 707.016C350.223 709.134 347.917 710.438 345.73 709.937C343.532 709.435 342.301 707.322 342.961 705.204Z" fill="#F65E21"/>
<path d="M356.721 114.794C357.412 112.58 359.826 111.244 362.114 111.767C364.425 112.295 365.74 114.484 365.049 116.698C364.366 118.89 361.938 120.269 359.627 119.741C357.339 119.218 356.037 116.986 356.721 114.794Z" fill="#F65E21"/>
<path d="M338.279 120.509C339.053 118.025 341.751 116.5 344.306 117.084C346.872 117.671 348.291 120.138 347.517 122.621C346.761 125.051 344.097 126.584 341.53 125.998C338.975 125.413 337.523 122.939 338.279 120.509Z" fill="#F65E21"/>
<path d="M321.148 127.239C321.841 125.013 324.307 123.619 326.639 124.152C328.96 124.683 330.265 126.939 329.572 129.165C328.872 131.412 326.429 132.811 324.108 132.281C321.776 131.747 320.449 129.486 321.148 127.239Z" fill="#F65E21"/>
<path d="M304.757 134.906C305.339 133.035 307.369 131.887 309.288 132.325C311.229 132.769 312.311 134.629 311.729 136.501C311.153 138.35 309.131 139.512 307.19 139.068C305.271 138.629 304.181 136.756 304.757 134.906Z" fill="#F65E21"/>
<path d="M289.296 143.472C289.681 142.236 291.038 141.487 292.3 141.775C293.594 142.072 294.302 143.293 293.916 144.529C293.534 145.754 292.211 146.511 290.916 146.215C289.655 145.927 288.914 144.698 289.296 143.472Z" fill="#F65E21"/>
<path d="M273.72 152.68C274.021 151.712 275.076 151.124 276.069 151.351C277.039 151.573 277.612 152.534 277.311 153.501C277.014 154.458 275.956 155.057 274.985 154.835C273.993 154.608 273.423 153.637 273.72 152.68Z" fill="#F65E21"/>
<path d="M258.714 162.682C258.938 161.962 259.675 161.554 260.389 161.718C261.103 161.881 261.505 162.549 261.281 163.269C261.073 163.935 260.333 164.353 259.619 164.19C258.905 164.027 258.507 163.349 258.714 162.682Z" fill="#F65E21"/>
<path d="M243.373 173.128C243.658 172.215 244.673 171.641 245.644 171.863C246.592 172.08 247.161 173.016 246.877 173.93C246.576 174.897 245.541 175.455 244.593 175.238C243.622 175.016 243.072 174.096 243.373 173.128Z" fill="#F65E21"/>
<path d="M230.455 184.725C230.519 184.52 230.775 184.314 231.056 184.378C231.291 184.432 231.45 184.733 231.387 184.938C231.304 185.207 231.008 185.347 230.772 185.293C230.491 185.229 230.372 184.994 230.455 184.725Z" fill="#F65E21"/>
<path d="M126.36 482.759C126.37 482.727 126.419 482.681 126.496 482.699C126.54 482.709 126.557 482.77 126.547 482.802C126.528 482.867 126.478 482.913 126.434 482.903C126.357 482.885 126.341 482.824 126.36 482.759Z" fill="#F65E21"/>
<path d="M130.349 499.664C130.419 499.439 130.673 499.325 130.865 499.369C131.09 499.42 131.243 499.627 131.172 499.852C131.104 500.067 130.851 500.181 130.625 500.13C130.434 500.086 130.281 499.879 130.349 499.664Z" fill="#F65E21"/>
<path d="M135.396 516.343C135.507 515.989 135.903 515.792 136.238 515.868C136.629 515.958 136.847 516.295 136.736 516.65C136.619 517.026 136.23 517.236 135.839 517.147C135.504 517.07 135.279 516.719 135.396 516.343Z" fill="#F65E21"/>
<path d="M141.202 532.773C141.393 532.16 142.057 531.794 142.67 531.934C143.284 532.074 143.669 532.68 143.478 533.293C143.294 533.884 142.601 534.267 141.987 534.127C141.374 533.986 141.018 533.364 141.202 532.773Z" fill="#F65E21"/>
<path d="M147.851 548.836C148.129 547.944 149.129 547.378 150.055 547.59C150.981 547.801 151.52 548.719 151.242 549.612C150.961 550.515 149.961 551.081 149.035 550.869C148.109 550.657 147.57 549.739 147.851 548.836Z" fill="#F65E21"/>
<path d="M155.647 564.636C155.985 563.55 157.19 562.869 158.339 563.132C159.455 563.387 160.092 564.489 159.754 565.575C159.412 566.671 158.222 567.344 157.107 567.089C155.957 566.826 155.306 565.732 155.647 564.636Z" fill="#F65E21"/>
<path d="M164.896 580.15C165.205 579.162 166.308 578.539 167.335 578.774C168.385 579.014 169.012 580.032 168.703 581.021C168.385 582.041 167.248 582.656 166.199 582.416C165.172 582.182 164.578 581.171 164.896 580.15Z" fill="#F65E21"/>
<path d="M174.963 595.254C175.254 594.319 176.289 593.762 177.238 593.979C178.22 594.203 178.759 595.121 178.468 596.056C178.176 596.99 177.172 597.567 176.189 597.342C175.241 597.125 174.671 596.189 174.963 595.254Z" fill="#F65E21"/>
<path d="M186.611 610.022C186.762 609.538 187.299 609.234 187.823 609.354C188.315 609.467 188.626 609.964 188.475 610.448C188.317 610.953 187.758 611.252 187.267 611.139C186.742 611.019 186.453 610.527 186.611 610.022Z" fill="#F65E21"/>
<path d="M198.56 624.182C198.663 623.848 199 623.649 199.358 623.731C199.692 623.807 199.891 624.129 199.787 624.462C199.683 624.796 199.324 624.99 198.989 624.914C198.632 624.832 198.456 624.515 198.56 624.182Z" fill="#F65E21"/>
<path d="M210.87 637.7C210.994 637.303 211.416 637.065 211.806 637.154C212.219 637.249 212.446 637.635 212.322 638.032C212.208 638.398 211.787 638.636 211.374 638.541C210.983 638.452 210.756 638.066 210.87 637.7Z" fill="#F65E21"/>
<path d="M222.414 650.267C222.806 649.009 224.184 648.23 225.489 648.529C226.795 648.828 227.526 650.089 227.134 651.347C226.742 652.605 225.378 653.375 224.073 653.077C222.767 652.778 222.022 651.525 222.414 650.267Z" fill="#F65E21"/>
<path d="M235.916 662.493C236.379 661.01 237.997 660.113 239.515 660.461C241.056 660.813 241.937 662.281 241.475 663.764C241.013 665.247 239.394 666.144 237.853 665.791C236.335 665.444 235.454 663.976 235.916 662.493Z" fill="#F65E21"/>
<path d="M250.306 674.092C250.795 672.522 252.542 671.516 254.182 671.891C255.821 672.266 256.74 673.882 256.252 675.452C255.756 677.043 254.031 678.02 252.391 677.645C250.752 677.27 249.811 675.684 250.306 674.092Z" fill="#F65E21"/>
<path d="M265.803 685.128C266.252 683.688 267.833 682.794 269.328 683.136C270.846 683.483 271.697 684.933 271.248 686.374C270.793 687.836 269.212 688.729 267.694 688.382C266.199 688.04 265.348 686.591 265.803 685.128Z" fill="#F65E21"/>
<path d="M282.012 695.468C282.403 694.21 283.78 693.43 285.085 693.728C286.379 694.024 287.098 695.283 286.707 696.542C286.315 697.801 284.961 698.585 283.667 698.29C282.362 697.991 281.621 696.727 282.012 695.468Z" fill="#F65E21"/>
<path d="M298.076 704.886C298.515 703.478 300.09 702.606 301.552 702.94C303.025 703.277 303.872 704.703 303.433 706.111C302.987 707.541 301.42 708.426 299.947 708.09C298.485 707.755 297.63 706.316 298.076 704.886Z" fill="#F65E21"/>
<path d="M313.793 713.349C314.436 711.285 316.693 710.027 318.835 710.517C320.933 710.997 322.159 713.051 321.515 715.115C320.872 717.179 318.619 718.425 316.521 717.946C314.378 717.456 313.15 715.413 313.793 713.349Z" fill="#F65E21"/>
<path d="M330.941 721.209C331.622 719.027 334.009 717.696 336.275 718.214C338.552 718.734 339.847 720.908 339.167 723.09C338.484 725.282 336.089 726.635 333.813 726.114C331.547 725.596 330.258 723.402 330.941 721.209Z" fill="#F65E21"/>
<path d="M348.353 728.242C349.09 725.877 351.701 724.401 354.167 724.965C356.633 725.528 358.028 727.921 357.291 730.286C356.551 732.662 353.951 734.14 351.485 733.576C349.019 733.013 347.613 730.618 348.353 728.242Z" fill="#F65E21"/>
<path d="M340.451 99.0006C341.238 96.4743 343.959 94.9545 346.537 95.5439C349.104 96.1309 350.59 98.6126 349.803 101.139C349.029 103.622 346.3 105.129 343.734 104.542C341.156 103.952 339.678 101.484 340.451 99.0006Z" fill="#F65E21"/>
<path d="M323.617 105.375C324.234 103.397 326.39 102.198 328.455 102.67C330.475 103.132 331.646 105.092 331.029 107.069C330.419 109.026 328.26 110.236 326.239 109.774C324.174 109.302 323.007 107.331 323.617 105.375Z" fill="#F65E21"/>
<path d="M307.407 112.583C307.822 111.249 309.298 110.423 310.681 110.74C312.064 111.056 312.864 112.402 312.449 113.736C312.034 115.069 310.548 115.927 309.165 115.611C307.781 115.295 306.992 113.916 307.407 112.583Z" fill="#F65E21"/>
<path d="M291.511 120.598C291.756 119.813 292.594 119.348 293.375 119.527C294.178 119.711 294.624 120.469 294.379 121.254C294.151 121.984 293.318 122.473 292.514 122.289C291.733 122.111 291.284 121.329 291.511 120.598Z" fill="#F65E21"/>
<path d="M244.715 148.572C244.775 148.378 244.946 148.291 245.114 148.329C245.305 148.373 245.392 148.519 245.332 148.713C245.285 148.864 245.115 148.987 244.925 148.943C244.756 148.905 244.669 148.723 244.715 148.572Z" fill="#F65E21"/>
<path d="M229.321 159.082C229.473 158.598 229.964 158.331 230.456 158.443C230.926 158.551 231.24 159.002 231.088 159.485C230.947 159.936 230.407 160.204 229.938 160.097C229.446 159.984 229.18 159.533 229.321 159.082Z" fill="#F65E21"/>
<path d="M214.3 170.222C214.591 169.287 215.582 168.754 216.508 168.965C217.423 169.175 217.972 170.06 217.681 170.995C217.41 171.866 216.409 172.432 215.494 172.222C214.568 172.011 214.029 171.093 214.3 170.222Z" fill="#F65E21"/>
<path d="M202.388 182.557C202.404 182.503 202.446 182.479 202.489 182.489C202.522 182.496 202.512 182.528 202.497 182.582C202.497 182.582 202.484 182.624 202.451 182.617C202.408 182.607 202.388 182.557 202.388 182.557Z" fill="#F65E21"/>
<path d="M109.097 501.023C109.101 501.012 109.155 500.991 109.155 500.991C109.189 500.998 109.223 501.04 109.22 501.05C109.203 501.103 109.155 501.103 109.122 501.096C109.122 501.096 109.08 501.075 109.097 501.023Z" fill="#F65E21"/>
<path d="M114.089 517.811C114.112 517.736 114.211 517.69 114.29 517.708C114.368 517.726 114.416 517.805 114.392 517.88C114.362 517.977 114.278 518.015 114.199 517.997C114.121 517.979 114.059 517.908 114.089 517.811Z" fill="#F65E21"/>
<path d="M119.449 534.218C119.576 533.809 120.07 533.53 120.527 533.635C120.996 533.742 121.217 534.184 121.089 534.593C120.952 535.034 120.503 535.323 120.035 535.216C119.577 535.112 119.312 534.659 119.449 534.218Z" fill="#F65E21"/>
<path d="M125.917 550.427C126.128 549.75 126.88 549.335 127.605 549.501C128.297 549.659 128.707 550.34 128.496 551.017C128.278 551.715 127.527 552.13 126.835 551.972C126.109 551.806 125.699 551.125 125.917 550.427Z" fill="#F65E21"/>
<path d="M133.18 566.309C133.485 565.331 134.581 564.73 135.585 564.959C136.612 565.194 137.178 566.176 136.874 567.154C136.569 568.132 135.503 568.752 134.477 568.517C133.472 568.288 132.876 567.287 133.18 566.309Z" fill="#F65E21"/>
<path d="M140.678 581.701C141.184 580.079 142.955 579.079 144.64 579.464C146.292 579.842 147.268 581.469 146.762 583.092C146.262 584.694 144.473 585.678 142.821 585.3C141.135 584.915 140.179 583.303 140.678 581.701Z" fill="#F65E21"/>
<path d="M150.791 597.095C151.202 595.773 152.613 594.966 153.996 595.283C155.347 595.592 156.123 596.898 155.711 598.22C155.303 599.532 153.87 600.333 152.52 600.024C151.136 599.708 150.382 598.407 150.791 597.095Z" fill="#F65E21"/>
<path d="M161.808 612.098C162.11 611.131 163.158 610.53 164.151 610.757C165.156 610.987 165.726 611.958 165.425 612.925C165.133 613.86 164.074 614.458 163.069 614.228C162.076 614.001 161.517 613.033 161.808 612.098Z" fill="#F65E21"/>
<path d="M173.234 626.519C173.488 625.702 174.387 625.193 175.223 625.384C176.071 625.578 176.555 626.403 176.301 627.221C176.043 628.049 175.145 628.557 174.297 628.363C173.461 628.172 172.977 627.347 173.234 626.519Z" fill="#F65E21"/>
<path d="M185.523 640.486C185.721 639.851 186.396 639.488 187.044 639.636C187.702 639.787 188.087 640.393 187.89 641.027C187.695 641.65 186.995 642.054 186.337 641.903C185.689 641.755 185.329 641.109 185.523 640.486Z" fill="#F65E21"/>
<path d="M198.238 653.866C198.426 653.264 199.07 652.881 199.705 653.027C200.318 653.167 200.677 653.779 200.49 654.381C200.307 654.973 199.637 655.361 199.023 655.221C198.388 655.076 198.055 654.458 198.238 653.866Z" fill="#F65E21"/>
<path d="M211.227 666.572C211.475 665.776 212.36 665.277 213.175 665.463C214.001 665.652 214.467 666.46 214.219 667.256C213.971 668.051 213.107 668.521 212.281 668.332C211.466 668.146 210.979 667.367 211.227 666.572Z" fill="#F65E21"/>
<path d="M224.833 678.668C225.158 677.626 226.282 676.973 227.364 677.221C228.435 677.466 229.052 678.516 228.727 679.559C228.406 680.591 227.267 681.217 226.195 680.972C225.113 680.724 224.512 679.7 224.833 678.668Z" fill="#F65E21"/>
<path d="M239.593 690.24C239.898 689.263 240.996 688.662 242.035 688.899C243.04 689.129 243.63 690.115 243.324 691.092C243.016 692.081 241.933 692.673 240.927 692.443C239.888 692.206 239.284 691.228 239.593 690.24Z" fill="#F65E21"/>
<path d="M255.371 701.288C255.602 700.546 256.4 700.096 257.17 700.272C257.94 700.448 258.37 701.179 258.138 701.921C257.918 702.63 257.11 703.114 256.34 702.937C255.57 702.761 255.15 701.998 255.371 701.288Z" fill="#F65E21"/>
<path d="M271.346 711.526C271.556 710.848 272.279 710.402 272.992 710.565C273.694 710.726 274.096 711.429 273.886 712.107C273.676 712.785 272.92 713.223 272.218 713.063C271.505 712.899 271.136 712.204 271.346 711.526Z" fill="#F65E21"/>
<path d="M287.871 721.085C288.058 720.483 288.703 720.1 289.327 720.243C289.951 720.386 290.31 720.998 290.123 721.6C289.939 722.192 289.27 722.58 288.645 722.437C288.021 722.294 287.687 721.677 287.871 721.085Z" fill="#F65E21"/>
<path d="M304.026 729.71C304.327 728.743 305.392 728.123 306.419 728.357C307.434 728.589 308.008 729.584 307.707 730.552C307.403 731.531 306.326 732.148 305.311 731.916C304.285 731.681 303.722 730.689 304.026 729.71Z" fill="#F65E21"/>
<path d="M320.435 737.55C320.891 736.088 322.466 735.216 323.996 735.566C325.48 735.905 326.339 737.333 325.883 738.795C325.427 740.257 323.852 741.129 322.367 740.789C320.838 740.44 319.98 739.011 320.435 737.55Z" fill="#F65E21"/>
<path d="M337.34 744.646C337.933 742.742 339.973 741.562 341.947 742.013C343.899 742.46 345.016 744.362 344.424 746.266C343.845 748.126 341.768 749.31 339.816 748.863C337.841 748.412 336.761 746.506 337.34 744.646Z" fill="#F65E21"/>
<path d="M354.878 750.982C355.544 748.843 357.913 747.496 360.179 748.014C362.4 748.522 363.67 750.701 363.003 752.84C362.326 755.011 359.968 756.326 357.747 755.818C355.481 755.3 354.201 753.153 354.878 750.982Z" fill="#F65E21"/>
<path d="M343.127 77.7998C343.84 75.51 346.361 74.0941 348.738 74.6376C351.126 75.1837 352.466 77.4825 351.753 79.7722C351.036 82.0727 348.541 83.4829 346.153 82.9368C343.776 82.3933 342.41 80.1002 343.127 77.7998Z" fill="#F65E21"/>
<path d="M325.478 83.6057C326.138 81.4875 328.455 80.1862 330.642 80.6862C332.829 81.1863 334.059 83.299 333.4 85.4173C332.744 87.5248 330.449 88.8313 328.262 88.3312C326.075 87.8311 324.822 85.7133 325.478 83.6057Z" fill="#F65E21"/>
<path d="M310.137 90.6238C310.411 89.7429 311.392 89.2073 312.296 89.414C313.19 89.6182 313.705 90.4958 313.43 91.3767C313.162 92.2362 312.207 92.7662 311.314 92.562C310.41 92.3553 309.868 91.4833 310.137 90.6238Z" fill="#F65E21"/>
<path d="M292.536 97.7466C292.856 96.7138 294.037 96.0275 295.13 96.2775C296.245 96.5325 296.87 97.6321 296.549 98.6648C296.218 99.7299 295.031 100.438 293.916 100.183C292.823 99.9327 292.205 98.8116 292.536 97.7466Z" fill="#F65E21"/>
<path d="M277.647 106.181C277.657 106.151 277.668 106.153 277.702 106.161C277.736 106.168 277.748 106.171 277.738 106.201C277.738 106.201 277.716 106.229 277.682 106.222C277.648 106.214 277.637 106.212 277.647 106.181Z" fill="#F65E21"/>
<path d="M97.9739 535.743C98.0238 535.581 98.2273 535.466 98.3843 535.502C98.53 535.535 98.6404 535.722 98.5905 535.884C98.5438 536.035 98.3402 536.15 98.1944 536.116C98.0374 536.08 97.9272 535.893 97.9739 535.743Z" fill="#F65E21"/>
<path d="M103.655 551.898C103.872 551.199 104.625 550.737 105.361 550.906C106.131 551.082 106.516 551.803 106.298 552.502C106.077 553.212 105.334 553.641 104.565 553.465C103.829 553.296 103.434 552.607 103.655 551.898Z" fill="#F65E21"/>
<path d="M111.203 568.023C111.421 567.325 112.161 566.907 112.853 567.065C113.59 567.234 113.988 567.912 113.771 568.61C113.563 569.277 112.823 569.694 112.086 569.526C111.394 569.368 110.995 568.69 111.203 568.023Z" fill="#F65E21"/>
<path d="M119.096 583.713C119.391 582.767 120.391 582.201 121.361 582.423C122.309 582.64 122.848 583.558 122.553 584.504C122.266 585.429 121.266 585.995 120.318 585.778C119.348 585.556 118.809 584.638 119.096 583.713Z" fill="#F65E21"/>
<path d="M127.662 599.031C128.05 597.784 129.409 597.023 130.67 597.311C131.975 597.61 132.656 598.837 132.268 600.085C131.89 601.3 130.586 602.073 129.281 601.775C128.021 601.487 127.284 600.247 127.662 599.031Z" fill="#F65E21"/>
<path d="M137.942 614.157C138.28 613.071 139.434 612.437 140.538 612.689C141.654 612.944 142.274 613.985 141.936 615.071C141.608 616.124 140.455 616.793 139.339 616.538C138.235 616.286 137.613 615.211 137.942 614.157Z" fill="#F65E21"/>
<path d="M148.838 628.834C149.14 627.867 150.193 627.29 151.186 627.517C152.191 627.747 152.757 628.694 152.455 629.661C152.16 630.606 151.112 631.207 150.107 630.977C149.113 630.75 148.543 629.779 148.838 628.834Z" fill="#F65E21"/>
<path d="M160.141 642.987C160.479 641.901 161.633 641.267 162.738 641.519C163.809 641.764 164.474 642.814 164.136 643.9C163.804 644.964 162.611 645.612 161.539 645.367C160.435 645.115 159.81 644.051 160.141 642.987Z" fill="#F65E21"/>
<path d="M172.567 656.741C172.851 655.827 173.862 655.229 174.843 655.454C175.803 655.673 176.343 656.626 176.058 657.54C175.764 658.486 174.752 659.049 173.793 658.83C172.811 658.605 172.272 657.687 172.567 656.741Z" fill="#F65E21"/>
<path d="M185.492 669.954C185.767 669.073 186.768 668.507 187.683 668.716C188.62 668.93 189.148 669.846 188.873 670.727C188.592 671.63 187.606 672.188 186.668 671.973C185.753 671.764 185.211 670.857 185.492 669.954Z" fill="#F65E21"/>
<path d="M198.761 682.545C199.083 681.513 200.217 680.863 201.3 681.111C202.371 681.356 202.988 682.406 202.667 683.438C202.342 684.481 201.199 685.118 200.128 684.873C199.046 684.625 198.436 683.588 198.761 682.545Z" fill="#F65E21"/>
<path d="M213.089 694.669C213.39 693.701 214.419 693.119 215.423 693.349C216.405 693.573 216.971 694.52 216.669 695.488C216.375 696.434 215.327 697.035 214.346 696.811C213.342 696.581 212.794 695.615 213.089 694.669Z" fill="#F65E21"/>
<path d="M227.852 706.139C228.144 705.204 229.203 704.606 230.173 704.828C231.178 705.057 231.748 706.028 231.456 706.964C231.155 707.931 230.096 708.53 229.092 708.3C228.121 708.078 227.551 707.107 227.852 706.139Z" fill="#F65E21"/>
<path d="M242.156 716.777C242.622 715.282 244.275 714.348 245.826 714.702C247.377 715.057 248.279 716.576 247.813 718.071C247.345 719.576 245.68 720.508 244.129 720.153C242.578 719.799 241.687 718.282 242.156 716.777Z" fill="#F65E21"/>
<path d="M258.603 727.11C258.971 725.928 260.269 725.176 261.53 725.465C262.779 725.75 263.49 726.961 263.122 728.144C262.747 729.348 261.423 730.105 260.173 729.819C258.913 729.531 258.228 728.314 258.603 727.11Z" fill="#F65E21"/>
<path d="M274.968 736.657C275.343 735.453 276.645 734.726 277.906 735.014C279.145 735.297 279.862 736.486 279.487 737.69C279.109 738.905 277.789 739.651 276.55 739.368C275.289 739.08 274.59 737.872 274.968 736.657Z" fill="#F65E21"/>
<path d="M292.57 745.687C292.821 744.88 293.673 744.407 294.51 744.598C295.324 744.785 295.8 745.561 295.549 746.368C295.301 747.163 294.428 747.666 293.613 747.48C292.777 747.289 292.323 746.482 292.57 745.687Z" fill="#F65E21"/>
<path d="M309.711 753.791C309.973 752.953 310.901 752.428 311.783 752.63C312.675 752.834 313.164 753.682 312.903 754.521C312.635 755.381 311.718 755.908 310.825 755.704C309.943 755.502 309.444 754.651 309.711 753.791Z" fill="#F65E21"/>
<path d="M326.842 761.099C327.19 759.981 328.42 759.295 329.569 759.558C330.741 759.826 331.397 760.943 331.049 762.061C330.697 763.19 329.479 763.878 328.307 763.61C327.158 763.348 326.491 762.228 326.842 761.099Z" fill="#F65E21"/>
<path d="M343.486 767.435C344.049 765.629 346.055 764.487 347.963 764.923C349.871 765.36 350.935 767.204 350.372 769.01C349.799 770.848 347.808 771.982 345.9 771.545C343.991 771.109 342.914 769.273 343.486 767.435Z" fill="#F65E21"/>
<path d="M344.698 56.5846C345.552 53.8425 348.551 52.1555 351.384 52.8035C354.229 53.4541 355.826 56.1923 354.973 58.9344C354.119 61.6764 351.139 63.3793 348.295 62.7287C345.461 62.0807 343.845 59.3267 344.698 56.5846Z" fill="#F65E21"/>
<path d="M325.978 61.7492C326.923 58.7175 330.25 56.8641 333.374 57.5786C336.532 58.3007 338.339 61.3278 337.394 64.3595C336.446 67.4019 333.109 69.2877 329.951 68.5656C326.827 67.8511 325.03 64.7916 325.978 61.7492Z" fill="#F65E21"/>
<path d="M312.997 68.9366C313.138 68.4847 313.631 68.2057 314.066 68.3052C314.524 68.4098 314.778 68.8598 314.637 69.3117C314.5 69.7527 314.031 69.9912 313.574 69.8866C313.139 69.7871 312.86 69.3776 312.997 68.9366Z" fill="#F65E21"/>
<path d="M82.7492 553.617C82.7492 553.617 82.7848 553.579 82.8402 553.591L82.8589 553.607C82.8423 553.661 82.8102 553.688 82.8102 553.688C82.7547 553.675 82.7426 553.638 82.7492 553.617Z" fill="#F65E21"/>
<path d="M88.4787 569.464C88.7432 568.615 89.6459 568.096 90.5274 568.298C91.4201 568.502 91.9233 569.342 91.6588 570.191C91.391 571.051 90.4659 571.565 89.5732 571.361C88.6918 571.16 88.2109 570.324 88.4787 569.464Z" fill="#F65E21"/>
<path d="M96.8147 585.479C97.0325 584.781 97.7728 584.363 98.4649 584.521C99.2016 584.69 99.6001 585.368 99.3823 586.066C99.1712 586.744 98.4342 587.151 97.6975 586.982C97.0054 586.824 96.6036 586.157 96.8147 585.479Z" fill="#F65E21"/>
<path d="M105.475 601.024C105.712 600.261 106.551 599.797 107.366 599.983C108.136 600.159 108.581 600.917 108.343 601.68C108.102 602.454 107.278 602.91 106.508 602.734C105.693 602.548 105.233 601.798 105.475 601.024Z" fill="#F65E21"/>
<path d="M114.591 616.163C114.902 615.163 116.005 614.54 117.032 614.775C118.114 615.022 118.696 616.031 118.385 617.03C118.07 618.041 116.976 618.677 115.893 618.429C114.867 618.195 114.276 617.173 114.591 616.163Z" fill="#F65E21"/>
<path d="M125.042 631.064C125.333 630.129 126.377 629.585 127.337 629.805C128.309 630.027 128.852 630.933 128.56 631.868C128.268 632.802 127.263 633.378 126.291 633.156C125.33 632.936 124.75 631.998 125.042 631.064Z" fill="#F65E21"/>
<path d="M136.13 645.533C136.412 644.631 137.411 644.077 138.338 644.289C139.298 644.508 139.83 645.412 139.548 646.315C139.266 647.217 138.282 647.763 137.321 647.543C136.394 647.331 135.848 646.436 136.13 645.533Z" fill="#F65E21"/>
<path d="M147.6 659.494C147.922 658.462 149.083 657.807 150.154 658.052C151.237 658.299 151.84 659.358 151.518 660.39C151.193 661.432 150.065 662.06 148.982 661.813C147.911 661.568 147.276 660.536 147.6 659.494Z" fill="#F65E21"/>
<path d="M160.351 673.114C160.625 672.232 161.582 671.691 162.463 671.892C163.377 672.101 163.893 672.979 163.619 673.861C163.351 674.722 162.391 675.274 161.477 675.065C160.596 674.863 160.084 673.974 160.351 673.114Z" fill="#F65E21"/>
<path d="M173.369 686.155C173.65 685.251 174.617 684.678 175.565 684.895C176.491 685.106 177.03 686.024 176.749 686.928C176.474 687.809 175.474 688.375 174.548 688.163C173.6 687.946 173.095 687.036 173.369 686.155Z" fill="#F65E21"/>
<path d="M186.824 698.615C187.132 697.626 188.235 697.004 189.296 697.246C190.334 697.483 190.939 698.496 190.631 699.485C190.313 700.505 189.198 701.126 188.16 700.888C187.099 700.646 186.505 699.635 186.824 698.615Z" fill="#F65E21"/>
<path d="M201.613 710.717C201.844 709.976 202.642 709.525 203.412 709.701C204.182 709.877 204.612 710.608 204.381 711.35C204.15 712.092 203.352 712.543 202.582 712.367C201.812 712.19 201.382 711.459 201.613 710.717Z" fill="#F65E21"/>
<path d="M216.906 722.22C217.054 721.747 217.619 721.426 218.11 721.539C218.634 721.659 218.894 722.168 218.746 722.641C218.589 723.147 218.078 723.445 217.554 723.325C217.064 723.213 216.749 722.726 216.906 722.22Z" fill="#F65E21"/>
<path d="M231.66 732.899C231.915 732.083 232.815 731.575 233.664 731.769C234.547 731.971 235.031 732.795 234.776 733.611C234.521 734.427 233.621 734.935 232.738 734.733C231.889 734.539 231.405 733.715 231.66 732.899Z" fill="#F65E21"/>
<path d="M246.946 742.965C247.301 741.825 248.569 741.09 249.751 741.36C250.944 741.633 251.606 742.81 251.251 743.95C250.893 745.101 249.646 745.806 248.453 745.533C247.271 745.263 246.588 744.116 246.946 742.965Z" fill="#F65E21"/>
<path d="M262.059 752.239C262.625 750.422 264.605 749.32 266.48 749.749C268.343 750.175 269.409 751.973 268.843 753.79C268.28 755.596 266.307 756.711 264.444 756.285C262.569 755.857 261.496 754.045 262.059 752.239Z" fill="#F65E21"/>
<path d="M279.073 761.184C279.599 759.496 281.452 758.457 283.204 758.857C284.978 759.263 285.959 760.95 285.433 762.638C284.904 764.337 283.07 765.392 281.296 764.986C279.544 764.585 278.544 762.882 279.073 761.184Z" fill="#F65E21"/>
<path d="M295.869 769.328C296.465 767.415 298.546 766.221 300.544 766.678C302.53 767.132 303.663 769.06 303.067 770.974C302.477 772.866 300.373 774.055 298.387 773.6C296.389 773.144 295.279 771.22 295.869 769.328Z" fill="#F65E21"/>
<path d="M314.287 777.066C314.743 775.604 316.339 774.703 317.846 775.047C319.341 775.389 320.2 776.852 319.745 778.314C319.299 779.744 317.706 780.635 316.211 780.293C314.704 779.949 313.842 778.496 314.287 777.066Z" fill="#F65E21"/>
<path d="M332.589 783.974C332.98 782.716 334.359 781.937 335.664 782.236C336.97 782.535 337.7 783.796 337.309 785.054C336.917 786.312 335.553 787.082 334.248 786.784C332.942 786.485 332.197 785.232 332.589 783.974Z" fill="#F65E21"/>
<path d="M350.496 790.018C350.937 788.599 352.478 787.719 353.951 788.056C355.446 788.398 356.27 789.819 355.828 791.238C355.39 792.647 353.842 793.548 352.347 793.206C350.875 792.87 350.057 791.427 350.496 790.018Z" fill="#F65E21"/>
<path d="M346.246 35.5211C347.251 32.2951 350.778 30.2912 354.136 31.0591C357.482 31.8245 359.365 35.0657 358.361 38.2918C357.36 41.5072 353.838 43.5351 350.491 42.7697C347.133 42.0018 345.246 38.7365 346.246 35.5211Z" fill="#F65E21"/>
<path d="M328.468 40.5959C329.392 37.6278 332.618 35.7855 335.674 36.4845C338.753 37.1886 340.469 40.1612 339.545 43.1293C338.638 46.0436 335.42 47.8994 332.341 47.1952C329.285 46.4962 327.561 43.5102 328.468 40.5959Z" fill="#F65E21"/>
<path d="M312.177 46.6333C312.811 44.6016 315.027 43.358 317.125 43.8377C319.212 44.3149 320.422 46.3419 319.789 48.3737C319.152 50.4162 316.931 51.6358 314.844 51.1586C312.746 50.6789 311.541 48.6759 312.177 46.6333Z" fill="#F65E21"/>
<path d="M297.781 53.7115C297.858 53.4643 298.143 53.3224 298.391 53.379C298.649 53.4381 298.792 53.6777 298.714 53.9249C298.634 54.1829 298.371 54.33 298.112 54.2709C297.865 54.2143 297.7 53.9694 297.781 53.7115Z" fill="#F65E21"/>
<path d="M74.0824 587.042C74.3134 586.3 75.1111 585.849 75.8811 586.025C76.651 586.201 77.0806 586.933 76.8496 587.675C76.6185 588.416 75.8207 588.867 75.0508 588.691C74.2808 588.515 73.8513 587.784 74.0824 587.042Z" fill="#F65E21"/>
<path d="M82.3602 602.724C82.6284 601.865 83.5878 601.359 84.4586 601.558C85.3519 601.762 85.8329 602.597 85.5647 603.457C85.2999 604.305 84.3964 604.824 83.5032 604.62C82.6323 604.421 82.0954 603.573 82.3602 602.724Z" fill="#F65E21"/>
<path d="M92.2319 618.274C92.3963 617.748 92.9784 617.455 93.5147 617.578C94.0508 617.7 94.3511 618.195 94.1867 618.721C94.0223 619.247 93.4702 619.559 92.9341 619.436C92.3979 619.314 92.0675 618.801 92.2319 618.274Z" fill="#F65E21"/>
<path d="M101.995 633.293C102.189 632.669 102.851 632.268 103.498 632.416C104.168 632.569 104.542 633.208 104.348 633.831C104.151 634.466 103.458 634.849 102.789 634.696C102.142 634.548 101.798 633.928 101.995 633.293Z" fill="#F65E21"/>
<path d="M112.621 647.961C112.815 647.338 113.509 646.955 114.156 647.103C114.815 647.254 115.193 647.882 114.999 648.505C114.801 649.139 114.104 649.532 113.446 649.381C112.798 649.233 112.423 648.595 112.621 647.961Z" fill="#F65E21"/>
<path d="M123.909 662.24C124.11 661.595 124.816 661.17 125.508 661.328C126.177 661.481 126.576 662.159 126.375 662.804C126.174 663.449 125.438 663.856 124.768 663.703C124.076 663.545 123.708 662.885 123.909 662.24Z" fill="#F65E21"/>
<path d="M136.396 676.213C136.516 675.825 136.928 675.574 137.307 675.66C137.742 675.76 137.942 676.152 137.822 676.539C137.705 676.916 137.307 677.16 136.873 677.06C136.494 676.974 136.279 676.59 136.396 676.213Z" fill="#F65E21"/>
<path d="M149.267 689.646C149.341 689.41 149.607 689.252 149.877 689.314C150.102 689.365 150.275 689.623 150.201 689.86C150.117 690.128 149.824 690.257 149.599 690.206C149.329 690.144 149.184 689.915 149.267 689.646Z" fill="#F65E21"/>
<path d="M162.489 702.58C162.569 702.323 162.818 702.184 163.088 702.246C163.336 702.302 163.504 702.536 163.423 702.794C163.349 703.03 163.06 703.183 162.813 703.126C162.542 703.064 162.415 702.817 162.489 702.58Z" fill="#F65E21"/>
<path d="M176.151 714.945C176.251 714.623 176.603 714.415 176.949 714.494C177.295 714.573 177.479 714.903 177.378 715.226C177.271 715.57 176.926 715.756 176.58 715.677C176.235 715.598 176.044 715.289 176.151 714.945Z" fill="#F65E21"/>
<path d="M190.617 726.85C190.694 726.603 191.001 726.431 191.293 726.498C191.552 726.557 191.718 726.837 191.641 727.084C191.55 727.374 191.247 727.535 190.988 727.476C190.696 727.409 190.526 727.14 190.617 726.85Z" fill="#F65E21"/>
<path d="M205.682 738.237C205.743 738.044 205.944 737.94 206.124 737.981C206.349 738.033 206.452 738.206 206.391 738.399C206.331 738.593 206.138 738.71 205.913 738.658C205.733 738.617 205.622 738.431 205.682 738.237Z" fill="#F65E21"/>
<path d="M221.21 749.031C221.247 748.913 221.373 748.815 221.53 748.851C221.665 748.882 221.741 749.026 221.704 749.144C221.661 749.284 221.515 749.365 221.38 749.335C221.223 749.299 221.167 749.171 221.21 749.031Z" fill="#F65E21"/>
<path d="M236.525 759.079C236.665 758.628 237.137 758.378 237.595 758.483C238.063 758.59 238.305 759.003 238.165 759.455C238.031 759.885 237.571 760.172 237.102 760.064C236.645 759.96 236.391 759.51 236.525 759.079Z" fill="#F65E21"/>
<path d="M251.17 768.281C251.592 766.926 253.06 766.087 254.443 766.404C255.827 766.72 256.623 768.077 256.201 769.432C255.786 770.765 254.314 771.58 252.93 771.264C251.547 770.947 250.755 769.615 251.17 768.281Z" fill="#F65E21"/>
<path d="M267.26 777.066C267.785 775.377 269.656 774.319 271.419 774.722C273.171 775.123 274.156 776.834 273.63 778.522C273.104 780.211 271.256 781.274 269.504 780.873C267.742 780.47 266.734 778.754 267.26 777.066Z" fill="#F65E21"/>
<path d="M282.825 785.016C283.619 782.469 286.398 780.916 289.054 781.523C291.688 782.126 293.183 784.656 292.389 787.203C291.599 789.74 288.824 791.317 286.19 790.714C283.534 790.107 282.034 787.553 282.825 785.016Z" fill="#F65E21"/>
<path d="M299.948 792.566C300.805 789.814 303.822 788.108 306.679 788.762C309.546 789.417 311.182 792.187 310.325 794.939C309.461 797.713 306.432 799.416 303.565 798.76C300.708 798.107 299.084 795.34 299.948 792.566Z" fill="#F65E21"/>
<path d="M318.014 799.602C318.84 796.945 321.74 795.305 324.473 795.93C327.228 796.56 328.778 799.218 327.952 801.875C327.122 804.542 324.234 806.185 321.479 805.555C318.746 804.93 317.184 802.269 318.014 799.602Z" fill="#F65E21"/>
<path d="M337.675 806.264C338.247 804.425 340.249 803.294 342.145 803.727C344.042 804.161 345.12 805.997 344.547 807.836C343.975 809.674 341.977 810.795 340.08 810.362C338.183 809.928 337.102 808.103 337.675 806.264Z" fill="#F65E21"/>
<path d="M357.36 812.214C357.69 811.061 358.888 810.341 360.002 810.598C360.349 810.678 360.635 810.85 360.875 811.057L359.821 814.749C359.498 814.826 359.159 814.842 358.813 814.762C357.698 814.505 357.034 813.357 357.36 812.214Z" fill="#F65E21"/>
<path d="M350.627 15.2646C351.321 13.0391 353.772 11.6533 356.104 12.1866C358.425 12.7173 359.745 14.9655 359.052 17.191C358.345 19.4595 355.897 20.8345 353.576 20.3038C351.244 19.7705 349.921 17.533 350.627 15.2646Z" fill="#F65E21"/>
<path d="M332.151 19.8634C332.858 17.595 335.316 16.1876 337.693 16.7312C340.036 17.267 341.394 19.5469 340.687 21.8154C339.984 24.0732 337.475 25.4917 335.131 24.9559C332.755 24.4124 331.448 22.1212 332.151 19.8634Z" fill="#F65E21"/>
<path d="M317.666 25.9523C317.753 25.6731 318.075 25.4935 318.39 25.5655C318.717 25.6401 318.902 25.9355 318.814 26.2147C318.724 26.5046 318.377 26.7246 318.051 26.65C317.736 26.578 317.575 26.2422 317.666 25.9523Z" fill="#F65E21"/>
<path d="M52.3736 588.78C52.4713 588.469 52.8161 588.295 53.1206 588.365C53.4364 588.437 53.6441 588.737 53.5464 589.048C53.452 589.348 53.0959 589.52 52.7801 589.448C52.4756 589.378 52.2792 589.08 52.3736 588.78Z" fill="#F65E21"/>
<path d="M59.8074 604.444C60.0384 603.702 60.8362 603.252 61.6061 603.428C62.3649 603.601 62.8057 604.335 62.5746 605.077C62.3436 605.819 61.5346 606.267 60.7759 606.093C60.006 605.917 59.5764 605.186 59.8074 604.444Z" fill="#F65E21"/>
<path d="M68.9867 620.063C69.174 619.46 69.8154 619.089 70.4287 619.229C71.0869 619.38 71.4271 619.976 71.2397 620.578C71.0524 621.18 70.4078 621.562 69.7497 621.412C69.1364 621.272 68.7994 620.665 68.9867 620.063Z" fill="#F65E21"/>
<path d="M79.1214 635.409C79.2122 635.119 79.5747 634.926 79.8902 634.998C80.1945 635.067 80.384 635.387 80.2932 635.676C80.1956 635.987 79.8512 636.162 79.5469 636.092C79.2314 636.02 79.0238 635.72 79.1214 635.409Z" fill="#F65E21"/>
<path d="M89.9173 650.404C89.9301 650.361 89.9651 650.324 90.0202 650.337C90.0864 650.352 90.1066 650.402 90.0937 650.444C90.0744 650.508 90.0285 650.543 89.9624 650.528C89.9072 650.515 89.898 650.467 89.9173 650.404Z" fill="#F65E21"/>
<path d="M100.885 664.924L100.952 664.905L101.01 664.952C100.996 664.993 100.947 664.993 100.947 664.993C100.924 664.988 100.871 664.965 100.885 664.924Z" fill="#F65E21"/>
<path d="M112.201 678.99C112.251 678.828 112.452 678.725 112.609 678.761C112.767 678.797 112.869 678.97 112.819 679.131C112.769 679.292 112.582 679.388 112.425 679.352C112.267 679.316 112.15 679.151 112.201 678.99Z" fill="#F65E21"/>
<path d="M124.597 692.736C124.618 692.673 124.71 692.649 124.756 692.66C124.778 692.665 124.844 692.725 124.824 692.788C124.807 692.84 124.718 692.854 124.695 692.849C124.65 692.838 124.581 692.789 124.597 692.736Z" fill="#F65E21"/>
<path d="M137.439 706.006C137.449 705.975 137.501 705.964 137.535 705.971C137.58 705.982 137.573 706.003 137.563 706.034C137.556 706.055 137.549 706.076 137.504 706.066C137.47 706.058 137.432 706.027 137.439 706.006Z" fill="#F65E21"/>
<path d="M150.847 718.817L150.899 718.758C150.942 718.768 150.935 718.79 150.935 718.79C150.92 718.845 150.913 718.867 150.87 718.857C150.87 718.857 150.844 718.828 150.847 718.817Z" fill="#F65E21"/>
<path d="M164.756 731.101C164.766 731.069 164.792 731.064 164.837 731.074C164.848 731.076 164.867 731.092 164.857 731.124C164.847 731.155 164.821 731.161 164.81 731.158C164.765 731.148 164.746 731.132 164.756 731.101Z" fill="#F65E21"/>
<path d="M194.189 754.18L194.274 754.13C194.285 754.133 194.286 754.168 194.286 754.168C194.273 754.211 194.253 754.241 194.242 754.239C194.242 754.239 194.186 754.191 194.189 754.18Z" fill="#F65E21"/>
<path d="M209.646 764.92C209.661 764.865 209.675 764.857 209.697 764.862C209.741 764.872 209.748 764.885 209.732 764.94C209.732 764.94 209.709 764.981 209.665 764.971C209.644 764.966 209.639 764.941 209.646 764.92Z" fill="#F65E21"/>
<path d="M225.442 775.043C225.465 774.967 225.544 774.905 225.645 774.928C225.712 774.943 225.768 775.037 225.744 775.112C225.711 775.22 225.619 775.245 225.552 775.229C225.451 775.206 225.408 775.15 225.442 775.043Z" fill="#F65E21"/>
<path d="M241.316 784.538C241.417 784.215 241.772 783.997 242.129 784.079C242.442 784.15 242.656 784.499 242.556 784.821C242.455 785.143 242.073 785.332 241.76 785.261C241.403 785.179 241.215 784.86 241.316 784.538Z" fill="#F65E21"/>
<path d="M255.747 792.991C256.229 791.443 257.926 790.484 259.556 790.856C261.151 791.221 262.087 792.783 261.605 794.331C261.116 795.901 259.393 796.866 257.798 796.501C256.168 796.128 255.258 794.561 255.747 792.991Z" fill="#F65E21"/>
<path d="M271.131 800.974C271.901 798.501 274.614 796.967 277.18 797.554C279.768 798.146 281.229 800.634 280.459 803.107C279.679 805.612 276.966 807.146 274.378 806.554C271.812 805.967 270.351 803.479 271.131 800.974Z" fill="#F65E21"/>
<path d="M288.051 808.635C288.915 805.861 291.932 804.156 294.81 804.814C297.677 805.47 299.279 808.232 298.416 811.006C297.559 813.758 294.564 815.469 291.697 814.813C288.818 814.155 287.194 811.388 288.051 808.635Z" fill="#F65E21"/>
<path d="M305.722 815.727C306.6 812.91 309.682 811.151 312.605 811.819C315.529 812.488 317.2 815.334 316.323 818.151C315.445 820.968 312.347 822.701 309.424 822.033C306.501 821.364 304.845 818.544 305.722 815.727Z" fill="#F65E21"/>
<path d="M324.538 822.354C325.288 819.945 327.937 818.42 330.469 818.999C332.99 819.575 334.401 822.029 333.652 824.438C332.895 826.869 330.246 828.394 327.725 827.817C325.193 827.238 323.782 824.784 324.538 822.354Z" fill="#F65E21"/>
<path d="M343.656 828.333C344.275 826.486 346.371 825.366 348.397 825.821C350.399 826.271 351.529 828.116 350.91 829.963C350.703 830.582 350.323 831.129 349.827 831.548L343.591 830.147C343.436 829.581 343.449 828.953 343.656 828.333Z" fill="#F65E21"/>
<path d="M337.374 -0.358785C337.628 -1.17528 338.496 -1.65592 339.311 -1.46961C340.138 -1.28072 340.621 -0.49121 340.366 0.325287C340.128 1.08802 339.246 1.57684 338.42 1.38795C337.604 1.20164 337.136 0.403953 337.374 -0.358785Z" fill="#F65E21"/>
<path d="M320.372 4.83811C320.401 4.74147 320.515 4.68664 320.638 4.7149C320.75 4.74058 320.817 4.83649 320.787 4.93314C320.747 5.06216 320.624 5.14918 320.511 5.12351C320.388 5.09524 320.332 4.96713 320.372 4.83811Z" fill="#F65E21"/>
<path d="M30.2319 590.366C30.2822 590.204 30.48 590.111 30.6262 590.145C30.8287 590.191 30.9009 590.346 30.8506 590.507C30.7969 590.679 30.6442 590.782 30.4417 590.736C30.2955 590.703 30.1782 590.538 30.2319 590.366Z" fill="#F65E21"/>
<path d="M37.2303 606.082C37.438 605.415 38.1783 604.998 38.8704 605.156C39.6071 605.324 40.0056 606.002 39.7978 606.669C39.5801 607.367 38.8398 607.785 38.1031 607.617C37.411 607.458 37.0125 606.78 37.2303 606.082Z" fill="#F65E21"/>
<path d="M45.7659 621.762C45.9964 621.02 46.8032 620.536 47.5722 620.712C48.3414 620.888 48.7606 621.652 48.5301 622.395C48.2996 623.137 47.503 623.588 46.7338 623.412C45.9648 623.236 45.5354 622.505 45.7659 621.762Z" fill="#F65E21"/>
<path d="M55.8241 637.316C55.9279 636.983 56.2682 636.773 56.6252 636.854C56.96 636.931 57.1553 637.263 57.0515 637.597C56.9544 637.909 56.5917 638.114 56.2569 638.037C55.8999 637.955 55.727 637.628 55.8241 637.316Z" fill="#F65E21"/>
<path d="M230.071 800.468C230.084 800.425 230.13 800.389 230.185 800.402C230.251 800.417 230.271 800.467 230.258 800.51C230.238 800.575 230.189 800.621 230.123 800.606C230.068 800.593 230.052 800.532 230.071 800.468Z" fill="#F65E21"/>
<path d="M245.272 809.167C245.537 808.319 246.475 807.808 247.346 808.007C248.24 808.211 248.743 809.051 248.478 809.9C248.213 810.749 247.287 811.262 246.393 811.057C245.522 810.858 245.007 810.016 245.272 809.167Z" fill="#F65E21"/>
<path d="M259.439 816.893C260.169 814.799 262.667 813.518 265.012 814.036C267.38 814.56 268.701 816.686 267.97 818.78C267.848 819.131 267.659 819.456 267.455 819.755L259.237 817.937C259.255 817.597 259.316 817.244 259.439 816.893Z" fill="#F65E21"/>
<path d="M279.204 821.173C280.138 820.973 281.135 820.937 282.125 821.11C283.115 821.283 283.947 821.64 284.605 822.119L279.204 821.173Z" fill="#F65E21"/>
<path d="M24.1819 623.724C24.199 623.67 24.2887 623.656 24.3227 623.664C24.4023 623.682 24.4374 623.724 24.4203 623.778C24.3998 623.842 24.3374 623.885 24.2578 623.867C24.2238 623.859 24.1614 623.787 24.1819 623.724Z" fill="#F65E21"/>
<path d="M33.0596 639.229C33.0996 639.099 33.2661 638.987 33.3669 639.01C33.5237 639.046 33.6037 639.215 33.5638 639.344C33.5272 639.463 33.3674 639.553 33.2106 639.517C33.1098 639.494 33.0231 639.347 33.0596 639.229Z" fill="#F65E21"/>
</svg>
