<svg width="279" height="834" viewBox="0 0 279 834" fill="none" xmlns="http://www.w3.org/2000/svg">
<path d="M5.80656 279.095C5.88823 278.675 5.52408 278.269 5.02056 278.171C4.51705 278.073 4.04223 278.316 3.96055 278.735C3.88586 279.119 4.237 279.51 4.74052 279.608C5.24403 279.706 5.73186 279.478 5.80656 279.095Z" fill="#F65E21"/>
<path d="M12.3458 297.148C12.4321 296.704 12.0126 296.175 11.4177 296.059C10.7921 295.937 10.2047 296.27 10.1184 296.714C10.0204 297.217 10.4444 297.722 11.07 297.844C11.6649 297.96 12.2478 297.651 12.3458 297.148Z" fill="#F65E21"/>
<path d="M17.1632 315.424C17.2589 314.932 16.837 314.415 16.2116 314.293C15.6013 314.174 15.0313 314.499 14.9356 314.99C14.8446 315.457 15.2536 315.959 15.8638 316.078C16.4893 316.2 17.0722 315.891 17.1632 315.424Z" fill="#F65E21"/>
<path d="M20.153 333.73C20.223 333.371 19.8647 333.015 19.4223 332.929C18.9494 332.837 18.5295 333.041 18.4595 333.4C18.3849 333.783 18.6951 334.142 19.168 334.234C19.6104 334.32 20.0784 334.113 20.153 333.73Z" fill="#F65E21"/>
<path d="M21.4727 352.033C21.5124 351.83 21.2992 351.614 21.0378 351.563C20.7613 351.509 20.4981 351.632 20.4584 351.836C20.4141 352.063 20.6143 352.264 20.8909 352.318C21.1522 352.369 21.4284 352.261 21.4727 352.033Z" fill="#F65E21"/>
<path d="M21.4091 370.316C21.4395 370.161 21.289 370.032 21.0892 369.993C20.8895 369.954 20.7171 370.02 20.6868 370.176C20.6588 370.319 20.7868 370.481 20.9866 370.52C21.1864 370.559 21.3811 370.46 21.4091 370.316Z" fill="#F65E21"/>
<path d="M19.9804 388.469C20.0131 388.302 19.8436 388.107 19.6131 388.062C19.3978 388.021 19.1524 388.134 19.1198 388.302C19.0848 388.481 19.2695 388.679 19.4848 388.721C19.7153 388.766 19.9454 388.649 19.9804 388.469Z" fill="#F65E21"/>
<path d="M17.582 406.52C17.6706 406.065 17.2665 405.539 16.6409 405.417C16.0306 405.298 15.4127 405.625 15.324 406.081C15.2283 406.572 15.6852 407.071 16.2955 407.19C16.9211 407.312 17.4863 407.012 17.582 406.52Z" fill="#F65E21"/>
<path d="M13.2264 424.167C13.3453 423.556 12.8155 422.943 12.0527 422.795C11.2593 422.64 10.5229 423.006 10.404 423.617C10.2873 424.216 10.8326 424.831 11.6259 424.986C12.3887 425.134 13.1098 424.765 13.2264 424.167Z" fill="#F65E21"/>
<path d="M6.66472 441.27C6.75575 440.803 6.38341 440.357 5.77314 440.238C5.20865 440.128 4.65031 440.392 4.55928 440.86C4.47293 441.303 4.88657 441.782 5.45107 441.892C6.06134 442.01 6.57837 441.713 6.66472 441.27Z" fill="#F65E21"/>
<path d="M-0.0597788 218.382C0.0101725 218.023 -0.294413 217.702 -0.724733 217.619C-1.17037 217.532 -1.55746 217.717 -1.62741 218.076C-1.69271 218.412 -1.40591 218.741 -0.960279 218.828C-0.529959 218.912 -0.125082 218.717 -0.0597788 218.382Z" fill="#F65E21"/>
<path d="M10.7335 235.324C10.7988 234.989 10.519 234.624 10.104 234.543C9.62758 234.45 9.23118 234.684 9.16588 235.019C9.10524 235.33 9.38734 235.683 9.86377 235.776C10.2788 235.857 10.6729 235.636 10.7335 235.324Z" fill="#F65E21"/>
<path d="M20.1094 252.624C20.156 252.385 19.9107 252.089 19.5726 252.023C19.1884 251.948 18.8804 252.137 18.8337 252.376C18.7754 252.675 18.9878 252.978 19.372 253.053C19.7101 253.118 20.051 252.924 20.1094 252.624Z" fill="#F65E21"/>
<path d="M27.8584 270.292C27.884 270.16 27.775 270.064 27.6213 270.034C27.4522 270.001 27.3154 270.049 27.2898 270.181C27.2688 270.288 27.366 270.444 27.5351 270.477C27.6888 270.507 27.8375 270.399 27.8584 270.292Z" fill="#F65E21"/>
<path d="M34.9231 288.359C34.9791 288.071 34.7574 287.817 34.3885 287.745C34.0504 287.679 33.7187 287.826 33.6627 288.113C33.6137 288.365 33.8567 288.673 34.1948 288.739C34.5637 288.811 34.8741 288.61 34.9231 288.359Z" fill="#F65E21"/>
<path d="M40.6785 306.644C40.7649 306.2 40.3513 305.722 39.7868 305.612C39.1919 305.496 38.6595 305.79 38.5731 306.233C38.4821 306.701 38.8651 307.173 39.46 307.289C40.0245 307.399 40.5875 307.111 40.6785 306.644Z" fill="#F65E21"/>
<path d="M43.95 324.843C43.9897 324.639 43.8073 324.429 43.5614 324.382C43.2847 324.328 43.0368 324.453 42.9972 324.657C42.9552 324.873 43.1401 325.07 43.4168 325.124C43.6626 325.172 43.908 325.058 43.95 324.843Z" fill="#F65E21"/>
<path d="M46.1105 343.161C46.1245 343.09 46.0356 342.973 45.9279 342.952C45.8356 342.934 45.7095 343.009 45.6955 343.08C45.6699 343.212 45.7728 343.257 45.865 343.275C45.9727 343.296 46.0849 343.293 46.1105 343.161Z" fill="#F65E21"/>
<path d="M47.0572 361.553C47.0782 361.446 46.9822 361.365 46.8284 361.335C46.7209 361.314 46.6017 361.353 46.5807 361.461C46.5668 361.532 46.6557 361.649 46.7632 361.67C46.917 361.7 47.0432 361.625 47.0572 361.553Z" fill="#F65E21"/>
<path d="M46.4075 379.758C46.4145 379.722 46.3648 379.651 46.3187 379.642C46.2111 379.621 46.1379 379.669 46.1309 379.704C46.1169 379.776 46.1644 379.86 46.272 379.881C46.3181 379.89 46.3935 379.83 46.4075 379.758Z" fill="#F65E21"/>
<path d="M44.3383 397.839C44.3406 397.827 44.3024 397.783 44.2424 397.772C44.2424 397.772 44.1905 397.798 44.1883 397.81L44.2196 397.889C44.2796 397.9 44.3269 397.898 44.3383 397.839Z" fill="#F65E21"/>
<path d="M41.0833 415.723C41.1066 415.603 40.9738 415.466 40.8048 415.433C40.6973 415.412 40.538 415.492 40.5147 415.612C40.4891 415.744 40.6088 415.866 40.7163 415.887C40.8853 415.92 41.0577 415.854 41.0833 415.723Z" fill="#F65E21"/>
<path d="M35.9921 433.213C36.0059 433.142 35.9498 433.107 35.9043 433.098C35.798 433.077 35.7325 433.089 35.7186 433.16C35.7048 433.231 35.7564 433.291 35.8627 433.311C35.9083 433.32 35.9782 433.285 35.9921 433.213Z" fill="#F65E21"/>
<path d="M29.8533 450.373C29.879 450.242 29.7663 450.083 29.551 450.041C29.3821 450.008 29.2026 450.11 29.177 450.242C29.1466 450.397 29.2748 450.559 29.4437 450.592C29.659 450.634 29.823 450.529 29.8533 450.373Z" fill="#F65E21"/>
<path d="M22.5548 467.147C22.6201 466.812 22.325 466.443 21.8945 466.36C21.4796 466.279 21.0371 466.503 20.9718 466.839C20.9089 467.162 21.2417 467.5 21.6566 467.581C22.0871 467.665 22.4918 467.47 22.5548 467.147Z" fill="#F65E21"/>
<path d="M13.7817 483.347C13.8774 482.856 13.4357 482.36 12.8102 482.238C12.1694 482.113 11.6042 482.413 11.5085 482.905C11.4152 483.384 11.8287 483.862 12.4695 483.987C13.095 484.109 13.6884 483.827 13.7817 483.347Z" fill="#F65E21"/>
<path d="M3.65067 498.936C3.7766 498.29 3.19027 497.641 2.41211 497.49C1.58834 497.329 0.847232 497.719 0.721303 498.366C0.597672 499.001 1.13588 499.652 1.95964 499.813C2.7378 499.964 3.52704 499.571 3.65067 498.936Z" fill="#F65E21"/>
<path d="M10.7184 193.474C10.8304 192.9 10.3027 192.275 9.53988 192.126C8.74651 191.972 8.0079 192.35 7.89596 192.925C7.77704 193.535 8.31744 194.175 9.1108 194.329C9.87359 194.478 10.5995 194.085 10.7184 193.474Z" fill="#F65E21"/>
<path d="M22.3465 209.87C22.4259 209.463 22.0582 208.993 21.5243 208.889C20.9598 208.779 20.4731 209.082 20.3938 209.49C20.3144 209.897 20.654 210.349 21.2185 210.459C21.7525 210.563 22.2672 210.278 22.3465 209.87Z" fill="#F65E21"/>
<path d="M32.864 226.734C32.9223 226.435 32.683 226.189 32.3143 226.117C31.9607 226.048 31.6467 226.186 31.5884 226.486C31.5301 226.785 31.7694 227.03 32.123 227.099C32.4917 227.171 32.8057 227.033 32.864 226.734Z" fill="#F65E21"/>
<path d="M42.1321 244.001C42.1577 243.87 42.0357 243.759 41.8667 243.726C41.7284 243.699 41.5738 243.756 41.5481 243.887C41.5248 244.007 41.6469 244.118 41.7852 244.144C41.9542 244.177 42.1088 244.121 42.1321 244.001Z" fill="#F65E21"/>
<path d="M50.3119 261.653C50.3303 261.558 50.2741 261.522 50.2285 261.514C50.1222 261.493 50.0569 261.505 50.0384 261.599C50.0291 261.647 50.083 261.694 50.1892 261.715C50.2348 261.724 50.3026 261.7 50.3119 261.653Z" fill="#F65E21"/>
<path d="M63.0396 297.689C63.0466 297.653 63.0465 297.653 62.9859 297.641C62.9406 297.633 62.9406 297.633 62.9337 297.668C62.9268 297.704 62.9267 297.704 62.9721 297.712C63.0327 297.724 63.0327 297.724 63.0396 297.689Z" fill="#F65E21"/>
<path d="M67.5516 316.005C67.5609 315.957 67.4697 315.852 67.4083 315.84C67.3622 315.831 67.2381 315.894 67.2288 315.942C67.2218 315.978 67.3131 316.083 67.3592 316.092C67.4207 316.104 67.5446 316.041 67.5516 316.005Z" fill="#F65E21"/>
<path d="M70.512 334.356C70.5186 334.321 70.4586 334.31 70.4286 334.304C70.4286 334.304 70.3536 334.289 70.347 334.323C70.3426 334.346 70.4175 334.361 70.4175 334.361C70.4476 334.367 70.5076 334.378 70.512 334.356Z" fill="#F65E21"/>
<path d="M46.0875 476.305C46.1272 476.101 45.9448 475.892 45.6987 475.844C45.3761 475.781 45.1282 475.907 45.0886 476.11C45.0443 476.338 45.2268 476.547 45.5494 476.61C45.7955 476.658 46.0432 476.532 46.0875 476.305Z" fill="#F65E21"/>
<path d="M37.2221 492.488C37.2758 492.212 37.0019 491.898 36.6177 491.823C36.2027 491.742 35.831 491.931 35.7773 492.206C35.7167 492.518 35.9905 492.832 36.4055 492.913C36.7897 492.988 37.1615 492.799 37.2221 492.488Z" fill="#F65E21"/>
<path d="M27.1765 508.154C27.2605 507.723 26.8352 507.304 26.3165 507.203C25.7825 507.099 25.2618 507.334 25.1778 507.765C25.0938 508.196 25.4885 508.609 26.0224 508.713C26.5411 508.814 27.0925 508.586 27.1765 508.154Z" fill="#F65E21"/>
<path d="M16.2694 523.256C16.4023 522.574 15.7797 521.869 14.8796 521.693C13.9947 521.521 13.1375 521.938 13.0046 522.62C12.8647 523.339 13.5003 524.059 14.3853 524.231C15.2854 524.407 16.1295 523.975 16.2694 523.256Z" fill="#F65E21"/>
<path d="M3.75886 537.648C3.91744 536.834 3.23482 536.03 2.18217 535.825C1.20571 535.635 0.271207 536.124 0.112632 536.938C-0.0366217 537.704 0.646027 538.508 1.62249 538.698C2.67513 538.903 3.60961 538.415 3.75886 537.648Z" fill="#F65E21"/>
<path d="M8.14504 153.922C8.46693 152.269 7.01482 150.619 4.93978 150.215C2.8345 149.805 0.869081 150.789 0.547193 152.442C0.225331 154.094 1.67759 155.745 3.78286 156.155C5.85791 156.559 7.82318 155.574 8.14504 153.922Z" fill="#F65E21"/>
<path d="M21.1529 169.171C21.3745 168.034 20.3559 166.841 18.8912 166.556C17.4113 166.267 16.0499 166.996 15.8284 168.134C15.6045 169.283 16.5927 170.47 18.0727 170.758C19.5373 171.043 20.929 170.32 21.1529 169.171Z" fill="#F65E21"/>
<path d="M32.7722 184.881C32.8702 184.377 32.3981 183.875 31.7267 183.744C31.0708 183.617 30.4749 183.911 30.3769 184.414C30.2719 184.953 30.7114 185.462 31.3673 185.59C32.0387 185.72 32.6672 185.42 32.7722 184.881Z" fill="#F65E21"/>
<path d="M43.8632 201.21C43.8842 201.103 43.7714 200.944 43.6178 200.914C43.4948 200.891 43.3155 200.992 43.2946 201.1C43.2713 201.219 43.4063 201.345 43.5293 201.369C43.6829 201.399 43.8399 201.33 43.8632 201.21Z" fill="#F65E21"/>
<path d="M54.6043 218.069C54.6112 218.034 54.5573 217.986 54.4814 217.971C54.3903 217.954 54.3378 217.98 54.3309 218.016C54.3147 218.099 54.3511 218.155 54.4422 218.173C54.5181 218.188 54.5881 218.152 54.6043 218.069Z" fill="#F65E21"/>
<path d="M64.3747 235.407C64.3935 235.31 64.293 235.253 64.2315 235.241C64.1854 235.232 64.0707 235.248 64.0519 235.344C64.0448 235.38 64.1478 235.425 64.1939 235.434C64.2553 235.446 64.3676 235.443 64.3747 235.407Z" fill="#F65E21"/>
<path d="M72.8889 252.975C72.8959 252.939 72.855 252.907 72.7943 252.895C72.6878 252.874 72.6376 252.889 72.6306 252.925C72.6144 253.008 72.6507 253.065 72.7571 253.086C72.8178 253.097 72.8727 253.059 72.8889 252.975Z" fill="#F65E21"/>
<path d="M69.6005 485.483C69.6168 485.4 69.6 485.322 69.431 485.289C69.3233 485.268 69.2018 485.319 69.1855 485.403C69.1692 485.486 69.2604 485.591 69.3681 485.612C69.5371 485.645 69.5842 485.567 69.6005 485.483Z" fill="#F65E21"/>
<path d="M60.6696 501.666C60.6906 501.558 60.571 501.436 60.4019 501.403C60.2483 501.373 60.1219 501.448 60.101 501.555C60.0753 501.687 60.1644 501.803 60.318 501.833C60.4872 501.866 60.644 501.797 60.6696 501.666Z" fill="#F65E21"/>
<path d="M50.635 517.347C50.6723 517.156 50.5052 516.949 50.244 516.898C49.9674 516.845 49.7195 516.97 49.6821 517.162C49.6378 517.389 49.8204 517.599 50.0971 517.653C50.3583 517.704 50.5907 517.575 50.635 517.347Z" fill="#F65E21"/>
<path d="M39.5192 532.483C39.5728 532.208 39.299 531.893 38.9302 531.821C38.5151 531.74 38.1435 531.929 38.0899 532.204C38.0293 532.516 38.3029 532.83 38.7179 532.911C39.0868 532.983 39.4585 532.794 39.5192 532.483Z" fill="#F65E21"/>
<path d="M27.5618 547.069C27.6645 546.542 27.2275 546.021 26.5257 545.885C25.9002 545.763 25.2386 546.069 25.136 546.596C25.0356 547.112 25.5338 547.644 26.1592 547.766C26.8611 547.902 27.4615 547.584 27.5618 547.069Z" fill="#F65E21"/>
<path d="M14.4217 560.953C14.5594 560.247 13.9977 559.553 13.0976 559.378C12.2127 559.206 11.3707 559.626 11.2331 560.332C11.0978 561.027 11.7159 561.756 12.6008 561.928C13.5009 562.104 14.2865 561.648 14.4217 560.953Z" fill="#F65E21"/>
<path d="M0.246005 574.138C0.409254 573.3 -0.292323 572.43 -1.40594 572.213C-2.50452 571.999 -3.48123 572.542 -3.64447 573.38C-3.81005 574.231 -3.10851 575.1 -2.00993 575.314C-0.896314 575.531 0.0804327 574.988 0.246005 574.138Z" fill="#F65E21"/>
<path d="M0.85436 115.986C1.26022 113.903 -0.549256 111.81 -3.17325 111.299C-5.82798 110.782 -8.27517 112.045 -8.68103 114.129C-9.08222 116.189 -7.29041 118.29 -4.63568 118.807C-2.01169 119.318 0.453175 118.046 0.85436 115.986Z" fill="#F65E21"/>
<path d="M15.0804 130.105C15.3486 128.728 14.129 127.347 12.4051 127.011C10.6353 126.666 9.03241 127.497 8.76418 128.874C8.49828 130.24 9.67196 131.612 11.4418 131.956C13.1657 132.292 14.8145 131.47 15.0804 130.105Z" fill="#F65E21"/>
<path d="M29.3007 144.98C29.5106 143.903 28.5647 142.824 27.2068 142.559C25.8795 142.301 24.5979 142.946 24.388 144.023C24.1804 145.089 25.124 146.18 26.4513 146.439C27.8091 146.703 29.0931 146.046 29.3007 144.98Z" fill="#F65E21"/>
<path d="M42.5709 160.429C42.7271 159.627 42.0656 158.877 41.0891 158.686C40.1128 158.496 39.218 158.943 39.0618 159.745C38.9172 160.488 39.5764 161.25 40.5527 161.44C41.5292 161.63 42.4263 161.171 42.5709 160.429Z" fill="#F65E21"/>
<path d="M56.2146 176.559C56.4128 175.541 55.5081 174.495 54.1808 174.237C52.8839 173.984 51.6222 174.608 51.424 175.626C51.2141 176.703 52.1516 177.743 53.4485 177.996C54.7758 178.255 56.0047 177.637 56.2146 176.559Z" fill="#F65E21"/>
<path d="M66.4111 192.713C66.4554 192.486 66.2631 192.163 65.8789 192.088C65.5562 192.025 65.1798 192.238 65.1354 192.465C65.0771 192.764 65.3579 193.043 65.6807 193.106C66.0649 193.18 66.3527 193.013 66.4111 192.713Z" fill="#F65E21"/>
<path d="M74.2605 526.574C74.2675 526.539 74.2335 526.471 74.127 526.45C74.0663 526.438 74.0092 526.488 74.0023 526.524C73.9884 526.595 74.0224 526.663 74.0831 526.675C74.1896 526.696 74.2467 526.645 74.2605 526.574Z" fill="#F65E21"/>
<path d="M63.5032 541.853C63.5522 541.601 63.3105 541.368 63.0494 541.317C62.7419 541.257 62.4302 541.383 62.3812 541.634C62.3346 541.874 62.5763 542.107 62.8838 542.167C63.1449 542.218 63.4566 542.092 63.5032 541.853Z" fill="#F65E21"/>
<path d="M51.6302 556.505C51.7072 556.11 51.3383 555.727 50.8806 555.638C50.3467 555.534 49.8764 555.753 49.7994 556.149C49.7178 556.568 50.0691 556.959 50.6031 557.063C51.0608 557.152 51.5486 556.924 51.6302 556.505Z" fill="#F65E21"/>
<path d="M39.0098 570.652C39.1427 569.97 38.5459 569.294 37.7067 569.131C36.8676 568.967 36.0304 569.363 35.8975 570.046C35.7693 570.704 36.3919 571.409 37.231 571.573C38.0702 571.736 38.8816 571.31 39.0098 570.652Z" fill="#F65E21"/>
<path d="M25.584 584.132C25.7775 583.138 24.8856 582.107 23.6193 581.86C22.353 581.614 21.1395 582.235 20.9459 583.228C20.75 584.234 21.6418 585.265 22.9081 585.512C24.1744 585.758 25.3881 585.138 25.584 584.132Z" fill="#F65E21"/>
<path d="M10.9199 596.898C11.1555 595.689 10.0828 594.448 8.51125 594.142C6.98567 593.845 5.54096 594.595 5.3054 595.804C5.06747 597.026 6.12734 598.252 7.65292 598.549C9.22445 598.855 10.682 598.12 10.9199 596.898Z" fill="#F65E21"/>
<path d="M5.97545 92.7852C6.26469 91.3003 4.94409 89.7878 3.05231 89.4193C1.16053 89.0508 -0.63136 89.957 -0.9206 91.442C-1.20982 92.9268 0.103944 94.4753 1.99572 94.8438C3.8875 95.2123 5.68624 94.27 5.97545 92.7852Z" fill="#F65E21"/>
<path d="M20.9073 106.532C21.0775 105.658 20.3256 104.803 19.2577 104.595C18.1591 104.381 17.1567 104.894 16.9864 105.768C16.8278 106.582 17.5598 107.458 18.6584 107.672C19.7262 107.88 20.7487 107.346 20.9073 106.532Z" fill="#F65E21"/>
<path d="M63.5722 151.581C63.6142 151.365 63.4554 151.198 63.2248 151.153C62.9637 151.102 62.7689 151.201 62.7269 151.416C62.6942 151.584 62.8307 151.785 63.0919 151.835C63.3224 151.88 63.5396 151.749 63.5722 151.581Z" fill="#F65E21"/>
<path d="M77.2546 167.805C77.3596 167.266 76.9179 166.77 76.2467 166.639C75.6058 166.514 74.9491 166.797 74.8441 167.336C74.7461 167.839 75.2464 168.359 75.8873 168.484C76.5585 168.615 77.1566 168.309 77.2546 167.805Z" fill="#F65E21"/>
<path d="M90.3205 184.544C90.5233 183.503 89.6246 182.507 88.3583 182.261C87.1072 182.017 85.9007 182.602 85.6978 183.644C85.5089 184.614 86.4006 185.645 87.6517 185.888C88.918 186.135 90.1315 185.514 90.3205 184.544Z" fill="#F65E21"/>
<path d="M99.0503 201.011C99.0617 200.953 99.0236 200.909 98.9636 200.897C98.9185 200.888 98.9117 200.923 98.9003 200.982C98.9003 200.982 98.8912 201.029 98.9362 201.038C98.9962 201.049 99.0503 201.011 99.0503 201.011Z" fill="#F65E21"/>
<path d="M87.1067 551.1C87.109 551.088 87.0559 551.041 87.0559 551.041C87.0109 551.033 86.944 551.056 86.9418 551.068C86.9303 551.127 86.988 551.15 87.033 551.159C87.033 551.159 87.0953 551.159 87.1067 551.1Z" fill="#F65E21"/>
<path d="M75.2274 565.862C75.2437 565.778 75.1501 565.685 75.0426 565.665C74.9351 565.644 74.8288 565.697 74.8125 565.781C74.7916 565.889 74.8721 565.967 74.9797 565.988C75.0872 566.008 75.2064 565.97 75.2274 565.862Z" fill="#F65E21"/>
<path d="M63.1562 580.177C63.2449 579.721 62.8055 579.213 62.18 579.091C61.5392 578.966 61.0021 579.284 60.9134 579.74C60.8178 580.231 61.1961 580.728 61.837 580.852C62.4624 580.974 63.0605 580.668 63.1562 580.177Z" fill="#F65E21"/>
<path d="M49.8656 593.858C50.0125 593.103 49.338 592.338 48.3464 592.145C47.4005 591.961 46.4882 592.417 46.3413 593.171C46.1897 593.949 46.8642 594.714 47.8101 594.899C48.8017 595.092 49.714 594.636 49.8656 593.858Z" fill="#F65E21"/>
<path d="M35.807 606.929C36.0193 605.839 35.0324 604.728 33.6592 604.46C32.2556 604.187 30.9694 604.856 30.7572 605.945C30.545 607.035 31.4837 608.15 32.8873 608.423C34.2605 608.691 35.5948 608.018 35.807 606.929Z" fill="#F65E21"/>
<path d="M21.7509 619.502C22.1031 617.694 20.5265 615.871 18.2227 615.422C15.9648 614.982 13.7883 616.075 13.4361 617.883C13.0885 619.667 14.6983 621.484 16.9562 621.924C19.26 622.373 21.4034 621.287 21.7509 619.502Z" fill="#F65E21"/>
<path d="M4.47281 630.89C4.7597 629.417 3.50849 627.955 1.61671 627.586C-0.229462 627.227 -1.96845 628.106 -2.25534 629.579C-2.53991 631.04 -1.2581 632.508 0.588076 632.867C2.47986 633.236 4.18824 632.351 4.47281 630.89Z" fill="#F65E21"/>
<path d="M10.8717 69.9259C11.0629 68.9442 10.1794 67.9519 8.94366 67.7112C7.72313 67.4734 6.56233 68.0676 6.37112 69.0492C6.18456 70.007 7.03982 70.9815 8.26036 71.2192C9.49609 71.4599 10.6851 70.8837 10.8717 69.9259Z" fill="#F65E21"/>
<path d="M28.3035 83.5995C28.5274 82.45 27.4852 81.2154 25.9901 80.9242C24.4645 80.627 23.035 81.3802 22.8111 82.5297C22.5802 83.7152 23.6178 84.9738 25.1434 85.271C26.6386 85.5622 28.0726 84.785 28.3035 83.5995Z" fill="#F65E21"/>
<path d="M41.8058 97.279C41.8127 97.2435 41.7976 97.2406 41.7523 97.2317C41.7069 97.2229 41.6917 97.2199 41.6848 97.2554C41.6848 97.2554 41.6931 97.2938 41.7385 97.3026C41.7838 97.3115 41.7989 97.3144 41.8058 97.279Z" fill="#F65E21"/>
<path d="M86.9227 589.654C86.9576 589.474 86.7752 589.265 86.56 589.223C86.3602 589.184 86.1123 589.309 86.0773 589.489C86.0446 589.657 86.2272 589.866 86.427 589.905C86.6422 589.947 86.89 589.821 86.9227 589.654Z" fill="#F65E21"/>
<path d="M74.627 603.64C74.7786 602.862 74.1287 602.052 73.1219 601.856C72.0692 601.651 71.1628 602.158 71.0112 602.936C70.8573 603.726 71.5142 604.5 72.5668 604.705C73.5737 604.901 74.4731 604.43 74.627 603.64Z" fill="#F65E21"/>
<path d="M60.0653 616.774C60.2169 615.996 59.5576 615.234 58.6118 615.05C57.6049 614.854 56.7078 615.313 56.5562 616.091C56.4116 616.833 57.0709 617.595 58.0777 617.791C59.0236 617.976 59.9207 617.517 60.0653 616.774Z" fill="#F65E21"/>
<path d="M45.3484 629.407C45.5536 628.353 44.6617 627.322 43.3344 627.063C42.0375 626.811 40.8239 627.432 40.6187 628.485C40.4182 629.515 41.3099 630.546 42.6068 630.799C43.9341 631.057 45.1478 630.436 45.3484 629.407Z" fill="#F65E21"/>
<path d="M30.0204 641.434C30.291 640.045 29.0739 638.652 27.3498 638.317C25.5648 637.969 23.99 638.818 23.7194 640.207C23.4559 641.56 24.5968 642.938 26.3818 643.286C28.1059 643.622 29.7569 642.787 30.0204 641.434Z" fill="#F65E21"/>
<path d="M12.6897 652.526C12.9253 651.316 11.8867 650.145 10.3763 649.85C8.85077 649.553 7.4635 650.253 7.22792 651.462C6.99937 652.635 8.01575 653.84 9.54134 654.137C11.0517 654.432 12.4612 653.699 12.6897 652.526Z" fill="#F65E21"/>
<path d="M4.16431 35.9067C4.82207 32.5298 1.84244 29.1281 -2.42942 28.296C-6.74706 27.455 -10.7854 29.4897 -11.4432 32.8666C-12.1032 36.2554 -9.13082 39.6931 -4.81318 40.5341C-0.541321 41.3662 3.50422 39.2955 4.16431 35.9067Z" fill="#F65E21"/>
<path d="M15.5338 47.2933C15.6318 46.79 15.1922 46.2816 14.5973 46.1657C13.9719 46.0439 13.389 46.3532 13.291 46.8564C13.1953 47.3476 13.6288 47.8051 14.2543 47.927C14.8492 48.0428 15.4381 47.7845 15.5338 47.2933Z" fill="#F65E21"/>
<path d="M97.5675 613.005C97.5675 613.005 97.5467 612.952 97.4715 612.937L97.4392 612.943C97.4276 613.003 97.4506 613.044 97.4506 613.044C97.5257 613.059 97.5628 613.029 97.5675 613.005Z" fill="#F65E21"/>
<path d="M85.41 626.732C85.5942 625.786 84.7952 624.848 83.5901 624.613C82.3695 624.376 81.2462 624.94 81.0619 625.885C80.8754 626.843 81.7049 627.788 82.9255 628.025C84.1306 628.26 85.2234 627.69 85.41 626.732Z" fill="#F65E21"/>
<path d="M69.9518 639.431C70.1034 638.653 69.4442 637.891 68.4983 637.707C67.4914 637.51 66.5943 637.969 66.4427 638.748C66.2958 639.502 66.9574 640.252 67.9643 640.448C68.9102 640.632 69.8049 640.185 69.9518 639.431Z" fill="#F65E21"/>
<path d="M54.3751 651.597C54.5407 650.747 53.7887 649.893 52.675 649.676C51.6222 649.471 50.6198 649.984 50.4542 650.834C50.2863 651.696 51.0253 652.536 52.0781 652.741C53.1917 652.958 54.2072 652.459 54.3751 651.597Z" fill="#F65E21"/>
<path d="M38.4749 663.228C38.6918 662.115 37.7095 660.979 36.3058 660.706C34.826 660.418 33.5044 661.105 33.2876 662.218C33.0684 663.343 34.0331 664.488 35.5129 664.776C36.9166 665.05 38.2557 664.354 38.4749 663.228Z" fill="#F65E21"/>
<path d="M21.0538 674.053C21.2567 673.012 20.3015 671.981 18.9894 671.725C17.6621 671.467 16.4507 672.076 16.2478 673.117C16.0449 674.159 16.9345 675.202 18.2618 675.46C19.5739 675.716 20.8509 675.095 21.0538 674.053Z" fill="#F65E21"/>
<path d="M3.07905 684.224C3.27496 683.218 2.38071 682.199 1.1144 681.952C-0.197508 681.697 -1.39368 682.309 -1.58958 683.315C-1.78546 684.32 -0.904114 685.325 0.407797 685.58C1.6741 685.827 2.88317 685.23 3.07905 684.224Z" fill="#F65E21"/>
<path d="M9.14063 14.0198C9.78439 10.7147 6.9197 7.37272 2.73955 6.55848C-1.47135 5.73826 -5.36555 7.76371 -6.00931 11.0687C-6.6414 14.3139 -3.79444 17.6649 0.416449 18.4851C4.5966 19.2994 8.50854 17.2649 9.14063 14.0198Z" fill="#F65E21"/>
<path d="M25.1678 25.8784C25.6086 23.6152 23.6288 21.3403 20.7606 20.7816C17.9075 20.2259 15.2035 21.5884 14.7627 23.8516C14.3195 26.1268 16.3191 28.3807 19.1722 28.9365C22.0404 29.4951 24.7246 28.1536 25.1678 25.8784Z" fill="#F65E21"/>
<path d="M38.4242 37.8696C38.4778 37.5941 38.2125 37.3188 37.8742 37.2529C37.5208 37.1841 37.2022 37.3456 37.1485 37.6211C37.0925 37.9085 37.3272 38.178 37.6806 38.2468C38.0189 38.3127 38.3682 38.157 38.4242 37.8696Z" fill="#F65E21"/>
<path d="M95.2298 649.488C95.3907 648.662 94.68 647.84 93.6272 647.635C92.5746 647.43 91.6072 647.925 91.4463 648.751C91.2853 649.577 91.9962 650.399 93.0489 650.604C94.1017 650.809 95.0689 650.314 95.2298 649.488Z" fill="#F65E21"/>
<path d="M80.0404 661.941C80.227 660.983 79.3517 660.03 78.1618 659.798C76.9412 659.56 75.8484 660.13 75.6618 661.088C75.4776 662.034 76.2766 662.972 77.4971 663.21C78.6871 663.442 79.8562 662.887 80.0404 661.941Z" fill="#F65E21"/>
<path d="M62.9699 673.567C63.0842 672.981 62.545 672.416 61.8127 672.273C61.0804 672.131 60.4143 672.461 60.3 673.047C60.1857 673.634 60.6769 674.202 61.4091 674.345C62.1415 674.488 62.8556 674.154 62.9699 673.567Z" fill="#F65E21"/>
<path d="M46.3387 684.807C46.474 684.113 45.8995 683.405 45.0146 683.232C44.0991 683.054 43.2549 683.486 43.1197 684.18C42.9821 684.887 43.6047 685.592 44.5202 685.77C45.4051 685.943 46.2012 685.514 46.3387 684.807Z" fill="#F65E21"/>
<path d="M28.8292 695.354C28.9645 694.66 28.3418 693.954 27.4569 693.782C26.5568 693.607 25.7148 694.027 25.5796 694.721C25.442 695.427 26.0624 696.145 26.9625 696.32C27.8474 696.493 28.6916 696.06 28.8292 695.354Z" fill="#F65E21"/>
<path d="M10.7129 705.273C10.8528 704.555 10.2395 703.802 9.29365 703.617C8.37816 703.439 7.48127 703.898 7.34134 704.616C7.20143 705.335 7.86283 706.085 8.77831 706.263C9.7242 706.447 10.573 705.991 10.7129 705.273Z" fill="#F65E21"/>
<path d="M26.1257 2.9724C26.1864 2.66098 25.8996 2.3317 25.4692 2.24788C25.0236 2.16108 24.6187 2.35562 24.5581 2.66704C24.4951 2.9904 24.788 3.37057 25.2337 3.45737C25.664 3.54119 26.0627 3.29575 26.1257 2.9724Z" fill="#F65E21"/>
<path d="M119.141 659.229C119.208 658.882 118.891 658.546 118.476 658.465C118.046 658.381 117.61 658.57 117.542 658.917C117.477 659.253 117.81 659.591 118.24 659.675C118.655 659.756 119.075 659.564 119.141 659.229Z" fill="#F65E21"/>
<path d="M105.008 672.049C105.169 671.223 104.458 670.401 103.406 670.196C102.368 669.994 101.386 670.486 101.225 671.312C101.064 672.138 101.79 672.963 102.827 673.165C103.88 673.37 104.847 672.875 105.008 672.049Z" fill="#F65E21"/>
<path d="M88.7525 684.046C88.8831 683.375 88.3167 682.706 87.4777 682.542C86.5774 682.367 85.8012 682.775 85.6706 683.445C85.54 684.116 86.104 684.797 87.0043 684.973C87.8433 685.136 88.6219 684.716 88.7525 684.046Z" fill="#F65E21"/>
<path d="M71.4648 695.381C71.5278 695.058 71.1996 694.696 70.7693 694.612C70.3543 694.531 69.9296 694.747 69.8666 695.07C69.799 695.417 70.1164 695.753 70.5314 695.834C70.9617 695.917 71.3972 695.729 71.4648 695.381Z" fill="#F65E21"/>
<path d="M53.5706 706.128C53.5799 706.08 53.5587 706.027 53.4826 706.012C53.3915 705.995 53.3367 706.033 53.3275 706.08C53.3136 706.152 53.35 706.208 53.4411 706.226C53.5171 706.24 53.5568 706.199 53.5706 706.128Z" fill="#F65E21"/>
<path d="M35.7177 716.396L35.6496 716.345L35.5526 716.363C35.5433 716.411 35.601 716.435 35.601 716.435C35.631 716.441 35.7084 716.443 35.7177 716.396Z" fill="#F65E21"/>
<path d="M17.6806 726.119C17.7156 725.939 17.5309 725.741 17.3156 725.699C17.1006 725.658 16.8705 725.774 16.8355 725.954C16.8005 726.134 16.9723 726.316 17.1874 726.358C17.4026 726.4 17.6457 726.298 17.6806 726.119Z" fill="#F65E21"/>
<path d="M143.684 669.043C143.719 668.863 143.532 668.678 143.332 668.639C143.055 668.585 142.874 668.699 142.839 668.878C142.801 669.07 142.927 669.244 143.204 669.297C143.404 669.336 143.647 669.235 143.684 669.043Z" fill="#F65E21"/>
<path d="M130.051 682.098C130.195 681.355 129.536 680.593 128.59 680.409C127.583 680.213 126.686 680.672 126.542 681.414C126.39 682.192 127.049 682.954 128.056 683.151C129.002 683.335 129.899 682.876 130.051 682.098Z" fill="#F65E21"/>
<path d="M114.55 694.44C114.711 693.614 114.007 692.756 112.955 692.551C111.902 692.346 110.928 692.877 110.767 693.703C110.606 694.529 111.317 695.351 112.369 695.556C113.422 695.761 114.39 695.266 114.55 694.44Z" fill="#F65E21"/>
<path d="M97.2424 705.983C97.3147 705.612 97.0222 705.244 96.534 705.149C96.0763 705.06 95.6366 705.285 95.5643 705.656C95.4967 706.003 95.8197 706.377 96.2775 706.466C96.7656 706.561 97.1748 706.33 97.2424 705.983Z" fill="#F65E21"/>
<path d="M138.175 704.299C138.187 704.239 138.087 704.182 138.04 704.173C137.933 704.152 137.864 704.176 137.853 704.236C137.839 704.308 137.888 704.379 137.996 704.4C138.042 704.409 138.161 704.37 138.175 704.299Z" fill="#F65E21"/>
<path d="M122.356 716.343C122.384 716.199 122.245 716.011 122.107 715.984C121.891 715.942 121.692 716.065 121.664 716.208C121.638 716.34 121.782 716.505 121.997 716.547C122.135 716.574 122.33 716.475 122.356 716.343Z" fill="#F65E21"/>
</svg>
