<svg width="174" height="57" viewBox="0 0 174 57" fill="none" xmlns="http://www.w3.org/2000/svg">
<rect width="173.195" height="56.6526" rx="17.5" fill="#080809"/>
<g clip-path="url(#clip0_1_1325)">
<path d="M46.1434 27.5198L29.8865 43.1741C29.1252 42.6538 28.6732 41.7884 28.6812 40.8664V14.1732C28.6732 13.2511 29.1252 12.3857 29.8865 11.8655L46.1434 27.5198Z" fill="#2196F3"/>
<path d="M51.8318 22.0519L46.1433 27.5199L29.8864 11.8656C29.9477 11.8181 30.0115 11.7739 30.0775 11.7333C30.9367 11.2125 32.0099 11.1957 32.885 11.6892L51.8318 22.0519Z" fill="#4CAF50"/>
<path d="M58.7256 27.52C58.7362 28.5609 58.1706 29.5223 57.2557 30.0188L51.8319 32.988L46.1434 27.52L51.8319 22.052L57.2557 25.0212C58.1706 25.5177 58.7362 26.4791 58.7256 27.52Z" fill="#F0BB1F"/>
<path d="M51.8318 32.9878L32.885 43.3505C32.008 43.8363 30.9388 43.8195 30.0775 43.3064C30.0115 43.2657 29.9477 43.2215 29.8864 43.1741L46.1434 27.5198L51.8318 32.9878Z" fill="#F15A2B"/>
</g>
<path d="M77.7338 19.2297H73.1887V21.0426H75.6102C75.2864 21.9102 74.4965 22.4411 73.2923 22.4411C71.5312 22.4411 70.4434 21.3145 70.4434 19.7736C70.4434 18.1808 71.583 17.0542 73.111 17.0542C74.134 17.0542 74.9498 17.5204 75.3253 18.1161L77.0864 17.106C76.3224 15.8888 74.8591 15.0342 73.1239 15.0342C70.4564 15.0342 68.3716 17.1319 68.3716 19.7606C68.3716 22.3634 70.4175 24.4612 73.2664 24.4612C75.8044 24.4612 77.7338 22.7778 77.7338 20.0067V19.2297Z" fill="white"/>
<path d="M80.3263 22.2857V20.68H83.5636V18.7117H80.3263V17.2096H83.8873V15.2155H78.2544V24.2799H83.9521V22.2857H80.3263Z" fill="white"/>
<path d="M90.5597 15.2155H83.8261V17.2096H86.157V24.2799H88.2288V17.2096H90.5597V15.2155Z" fill="white"/>
<path d="M93.409 15.2155V24.2799H95.4809V15.2155H93.409Z" fill="white"/>
<path d="M102.477 15.2155H95.7434V17.2096H98.0742V24.2799H100.146V17.2096H102.477V15.2155Z" fill="white"/>
<path d="M109.651 24.4612C112.254 24.4612 114.365 22.4152 114.365 19.7477C114.365 17.0801 112.254 15.0342 109.651 15.0342C107.049 15.0342 104.938 17.0801 104.938 19.7477C104.938 22.4152 107.049 24.4612 109.651 24.4612ZM109.651 22.4411C108.175 22.4411 107.01 21.3663 107.01 19.7477C107.01 18.129 108.175 17.0542 109.651 17.0542C111.127 17.0542 112.293 18.129 112.293 19.7477C112.293 21.3663 111.127 22.4411 109.651 22.4411Z" fill="white"/>
<path d="M119.934 15.2155V20.1361L116.438 15.2155H114.884V24.2799H116.956V19.3592L120.452 24.2799H122.006V15.2155H119.934Z" fill="white"/>
<path d="M77.7338 34.6263V34.9759C77.7338 36.1068 77.3324 37.0607 76.5296 37.8377C75.7267 38.606 74.6692 38.9901 73.357 38.9901C71.9758 38.9901 70.8362 38.5412 69.9384 37.6434C69.0406 36.737 68.5917 35.6277 68.5917 34.3155C68.5917 33.0033 69.0363 31.8983 69.9255 31.0005C70.8147 30.0941 71.9412 29.6408 73.3052 29.6408C74.134 29.6408 74.8936 29.8394 75.5843 30.2365C76.2835 30.6336 76.8231 31.1645 77.2029 31.8292L76.5943 32.1918C76.2922 31.6221 75.8432 31.1645 75.2476 30.8192C74.6606 30.4739 74.0131 30.3012 73.3052 30.3012C72.1312 30.3012 71.1643 30.6897 70.4046 31.4667C69.6535 32.235 69.278 33.1846 69.278 34.3155C69.278 35.4464 69.6579 36.4003 70.4175 37.1772C71.1772 37.9456 72.1571 38.3297 73.357 38.3297C74.4188 38.3297 75.2778 38.0405 75.9339 37.4621C76.59 36.8837 76.9569 36.1543 77.0346 35.2737H73.1887V34.6263H77.7338Z" fill="white"/>
<path d="M86.9255 37.6305C86.0191 38.5369 84.9141 38.9901 83.6105 38.9901C82.307 38.9901 81.202 38.5369 80.2955 37.6305C79.3891 36.7154 78.9359 35.6104 78.9359 34.3155C78.9359 33.0206 79.3891 31.9199 80.2955 31.0134C81.202 30.0984 82.307 29.6408 83.6105 29.6408C84.9141 29.6408 86.0191 30.0984 86.9255 31.0134C87.8319 31.9199 88.2852 33.0206 88.2852 34.3155C88.2852 35.6104 87.8319 36.7154 86.9255 37.6305ZM80.7747 37.1643C81.5516 37.9412 82.4969 38.3297 83.6105 38.3297C84.7241 38.3297 85.6651 37.9412 86.4334 37.1643C87.2104 36.3787 87.5989 35.4291 87.5989 34.3155C87.5989 33.2019 87.2104 32.2566 86.4334 31.4796C85.6651 30.694 84.7241 30.3012 83.6105 30.3012C82.4969 30.3012 81.5516 30.694 80.7747 31.4796C80.0063 32.2566 79.6222 33.2019 79.6222 34.3155C79.6222 35.4291 80.0063 36.3787 80.7747 37.1643Z" fill="white"/>
<path d="M97.4973 37.6305C96.5908 38.5369 95.4858 38.9901 94.1823 38.9901C92.8787 38.9901 91.7738 38.5369 90.8673 37.6305C89.9609 36.7154 89.5077 35.6104 89.5077 34.3155C89.5077 33.0206 89.9609 31.9199 90.8673 31.0134C91.7738 30.0984 92.8787 29.6408 94.1823 29.6408C95.4858 29.6408 96.5908 30.0984 97.4973 31.0134C98.4037 31.9199 98.8569 33.0206 98.8569 34.3155C98.8569 35.6104 98.4037 36.7154 97.4973 37.6305ZM91.3464 37.1643C92.1234 37.9412 93.0687 38.3297 94.1823 38.3297C95.2959 38.3297 96.2369 37.9412 97.0052 37.1643C97.7822 36.3787 98.1706 35.4291 98.1706 34.3155C98.1706 33.2019 97.7822 32.2566 97.0052 31.4796C96.2369 30.694 95.2959 30.3012 94.1823 30.3012C93.0687 30.3012 92.1234 30.694 91.3464 31.4796C90.5781 32.2566 90.194 33.2019 90.194 34.3155C90.194 35.4291 90.5781 36.3787 91.3464 37.1643Z" fill="white"/>
<path d="M109.222 34.6263V34.9759C109.222 36.1068 108.82 37.0607 108.017 37.8377C107.214 38.606 106.157 38.9901 104.845 38.9901C103.463 38.9901 102.324 38.5412 101.426 37.6434C100.528 36.737 100.079 35.6277 100.079 34.3155C100.079 33.0033 100.524 31.8983 101.413 31.0005C102.302 30.0941 103.429 29.6408 104.793 29.6408C105.622 29.6408 106.381 29.8394 107.072 30.2365C107.771 30.6336 108.311 31.1645 108.691 31.8292L108.082 32.1918C107.78 31.6221 107.331 31.1645 106.735 30.8192C106.148 30.4739 105.501 30.3012 104.793 30.3012C103.619 30.3012 102.652 30.6897 101.892 31.4667C101.141 32.235 100.766 33.1846 100.766 34.3155C100.766 35.4464 101.146 36.4003 101.905 37.1772C102.665 37.9456 103.645 38.3297 104.845 38.3297C105.907 38.3297 106.766 38.0405 107.422 37.4621C108.078 36.8837 108.445 36.1543 108.522 35.2737H104.676V34.6263H109.222Z" fill="white"/>
<path d="M111.628 38.2002H115.901V38.8477H110.942V29.7833H111.628V38.2002Z" fill="white"/>
<path d="M118.014 38.2002H122.546V38.8477H117.328V29.7833H122.481V30.4307H118.014V33.9529H122.158V34.6004H118.014V38.2002Z" fill="white"/>
<path d="M130.766 29.7833C131.578 29.7833 132.251 30.0509 132.786 30.5861C133.322 31.1214 133.589 31.7904 133.589 32.5932C133.589 33.3961 133.322 34.0651 132.786 34.6004C132.251 35.127 131.578 35.3903 130.766 35.3903H128.371V38.8477H127.684V29.7833H130.766ZM130.766 34.7428C131.388 34.7428 131.897 34.5399 132.294 34.1342C132.7 33.7285 132.903 33.2148 132.903 32.5932C132.903 31.9631 132.7 31.4451 132.294 31.0393C131.897 30.6336 131.388 30.4307 130.766 30.4307H128.371V34.7428H130.766Z" fill="white"/>
<path d="M135.971 38.2002H140.244V38.8477H135.284V29.7833H135.971V38.2002Z" fill="white"/>
<path d="M148.022 38.8477L147.142 36.5427H142.597L141.716 38.8477H140.991L144.513 29.7833H145.238L148.748 38.8477H148.022ZM142.856 35.8953H146.896L144.876 30.625L142.856 35.8953Z" fill="white"/>
<path d="M155.197 29.7833L151.895 35.1183V38.8477H151.209V35.1183L147.907 29.7833H148.684L151.558 34.4579L154.42 29.7833H155.197Z" fill="white"/>
<defs>
<clipPath id="clip0_1_1325">
<rect width="32.3729" height="32.3729" fill="white" transform="translate(27.517 11.3306)"/>
</clipPath>
</defs>
</svg>
