<svg width="145" height="41" viewBox="0 0 145 41" fill="none" xmlns="http://www.w3.org/2000/svg">
<g clip-path="url(#clip0_161_74)">
<path fill-rule="evenodd" clip-rule="evenodd" d="M57.3168 31.0972C60.0725 31.2924 63.2838 29.1753 64.4149 27.9665C68.3474 23.7584 68.4423 17.6733 64.4833 13.2663C63.0105 11.6258 59.5487 9.81268 57.3585 10.0679H49.4291V31.071L57.3357 31.0972H57.3168ZM53.9005 26.5475V14.5914C55.1417 14.5109 56.3869 14.5109 57.628 14.5914C58.6046 14.7034 59.5361 15.06 60.3344 15.6275C64.8894 18.7056 62.9915 26.0445 57.5521 26.5363C56.3365 26.6208 55.1166 26.6245 53.9005 26.5475Z" fill="#008CEB"/>
<path fill-rule="evenodd" clip-rule="evenodd" d="M126.928 31.1348H131.449V26.6076H140.418L140.445 31.1123H144.966V23.6495C144.966 21.3972 145.156 18.5893 144.586 16.5509C144.069 14.6849 142.949 13.0373 141.397 11.8596C139.844 10.6818 137.945 10.0386 135.989 10.028C134.032 10.0173 132.126 10.6399 130.561 11.8007C128.995 12.9615 127.857 14.5968 127.319 16.4571C126.712 18.4692 126.917 21.3559 126.917 23.5895C126.917 26.1121 126.89 28.6497 126.917 31.1723L126.928 31.1348ZM131.453 22.0541C131.426 20.1772 131.225 18.1689 132.117 16.7236C132.509 16.0582 133.071 15.5073 133.748 15.1268C134.425 14.7464 135.191 14.55 135.97 14.5576C136.744 14.5633 137.504 14.7676 138.174 15.1505C138.845 15.5334 139.404 16.082 139.796 16.7424C140.677 18.2439 140.468 20.1209 140.445 22.0579L131.453 22.0541Z" fill="#008CEB"/>
<path fill-rule="evenodd" clip-rule="evenodd" d="M75.2292 31.131H79.7348C79.7348 30.1851 79.6134 27.2908 79.7766 26.6038H88.7119L88.7423 31.1273H93.2555C93.2327 28.6197 93.2555 26.1158 93.2555 23.6195C93.2555 21.4798 93.4567 18.4166 92.8759 16.5171C92.3555 14.6535 91.2337 13.009 89.6811 11.8341C88.1286 10.6591 86.2304 10.0179 84.2754 10.0081C82.3204 9.99833 80.4158 10.6205 78.8513 11.7799C77.2868 12.9393 76.1482 14.5725 75.6088 16.4308C75.0052 18.3828 75.2102 21.3672 75.2102 23.5407C75.2102 26.0483 75.1533 28.6197 75.2102 31.1198L75.2292 31.131ZM79.7386 22.0541C79.7083 20.1772 79.5147 18.1426 80.4067 16.7274C80.7981 16.0637 81.3586 15.5131 82.0323 15.1304C82.7059 14.7477 83.4693 14.5464 84.2461 14.5464C85.023 14.5464 85.7863 14.7477 86.46 15.1304C87.1337 15.5131 87.6942 16.0637 88.0856 16.7274C88.97 18.2289 88.7575 20.1359 88.7423 22.0466L79.7386 22.0541Z" fill="#008CEB"/>
<path fill-rule="evenodd" clip-rule="evenodd" d="M101.185 18.2702L101.12 21.3972C101.12 24.0249 100.991 28.9312 101.12 31.0672H105.539C105.641 29.5656 105.379 18.9008 105.656 18.5592C105.656 16.4871 107.847 14.5576 110.056 14.5501C111.204 14.5432 112.31 14.9796 113.138 15.7663C113.7 16.2731 114.561 17.4293 114.546 18.5968C114.751 18.7131 114.588 29.8584 114.652 31.0935H119.075L119.04 18.349C119.151 17.3505 118.543 15.8076 118.152 15.0268C117.427 13.5391 116.295 12.2818 114.885 11.3974C113.475 10.513 111.842 10.0368 110.172 10.0228C108.502 10.0087 106.862 10.4573 105.436 11.3178C104.011 12.1784 102.858 13.4164 102.107 14.8917C101.728 15.6612 101.09 17.2454 101.185 18.2702Z" fill="#008CEB"/>
<path d="M20.7289 41C32.1772 41 41.4579 31.8218 41.4579 20.5C41.4579 9.17816 32.1772 0 20.7289 0C9.28066 0 0 9.17816 0 20.5C0 31.8218 9.28066 41 20.7289 41Z" fill="#008CEB"/>
<path d="M32.8072 20.5863V26.3561C32.8072 26.7315 32.644 26.8103 32.3251 26.6264C31.8986 26.3732 31.4547 26.15 30.9966 25.9582C29.6132 25.4131 28.1147 25.2158 26.6352 25.3838C25.0205 25.591 23.4357 25.984 21.9132 26.555C20.3949 27.0618 18.9069 27.6099 17.3583 28.0341C16.0755 28.4108 14.7406 28.5844 13.403 28.5483C11.9206 28.4915 10.48 28.0472 9.22762 27.2608C9.07027 27.167 8.94117 27.0334 8.85373 26.8736C8.76628 26.7139 8.72369 26.5339 8.73037 26.3523C8.73037 22.5734 8.73037 18.7945 8.73037 15.0156C8.73037 14.8316 8.73037 14.6139 8.89739 14.5201C9.0644 14.4262 9.23521 14.5801 9.37945 14.674C10.7394 15.5833 12.35 16.0553 13.9914 16.0254C15.165 15.9778 16.3256 15.7641 17.438 15.391C19.017 14.9067 20.5429 14.2648 22.0954 13.7205C23.3039 13.2612 24.543 12.8849 25.8039 12.5943C26.8861 12.3437 28.009 12.3174 29.1019 12.517C30.1948 12.7166 31.2341 13.1379 32.1543 13.7543C32.3653 13.8821 32.538 14.0632 32.6548 14.2789C32.7715 14.4947 32.8281 14.7373 32.8186 14.9818C32.8186 16.8587 32.8186 18.7357 32.8186 20.6126L32.8072 20.5863Z" fill="#FEFEFE"/>
</g>
<defs>
<clipPath id="clip0_161_74">
<rect width="145" height="41" fill="white"/>
</clipPath>
</defs>
</svg>
